<?xml version="1.0" encoding="UTF-8" standalone="no"?>
<!-- Created with Inkscape (http://www.inkscape.org/) -->

<svg
   xmlns:dc="http://purl.org/dc/elements/1.1/"
   xmlns:cc="http://creativecommons.org/ns#"
   xmlns:rdf="http://www.w3.org/1999/02/22-rdf-syntax-ns#"
   xmlns:svg="http://www.w3.org/2000/svg"
   xmlns="http://www.w3.org/2000/svg"
   version="1.1"
   width="95.956398mm"
   height="93.596802mm"
   viewBox="0 0 83.9607 81.896"
   id="svg2"
   xml:space="preserve"
   style="fill-rule:evenodd"><metadata
   id="metadata14"><rdf:RDF><cc:Work
       rdf:about=""><dc:format>image/svg+xml</dc:format><dc:type
         rdf:resource="http://purl.org/dc/dcmitype/StillImage" /><dc:title></dc:title></cc:Work></rdf:RDF></metadata>
 <defs
   id="defs4">
  <style
   type="text/css"
   id="style6" />
 </defs>
 <g
   id="Layer_x0020_1">
  <metadata
   id="CorelCorpID_0Corel-Layer" />
  <path
   d="M 0,79.9408 17.66,62.2808 3.7275,48.3484 2.749964,47.370864 3.7275,46.393153 l 7.05546,-7.05546 0,-10.9998 -4.78382,4.78391 -1.95525,-1.95525 4.78365,-4.78365 -6.76278,0 0,-2.75464 6.76278,0 -4.78365,-4.78373 1.95525,-1.95525 4.78373,4.78382 -8.7e-5,-6.76304 2.75464,0 8.7e-5,6.76278 4.78356,-4.78356 1.95516,1.95525 -4.78365,4.78365 6.76313,0 0,2.75464 -6.76313,0 4.78365,4.78373 -1.95516,1.95525 -4.78347,-4.78347 0,10.9996 6.07766,6.07758 5.49982,-5.49974 0.977624,-0.977624 6.47745,-6.47745 0.244472,-0.244472 0.733152,-0.733152 7.05538,-7.05538 0,-10.9996 -4.78373,4.78373 -1.95525,-1.95525 4.78365,-4.78365 -6.76278,0 0,-2.75464 6.76278,0 -4.78365,-4.78373 1.95525,-1.95525 4.78373,4.78373 -8.7e-5,-6.76295 2.75446,0 1.74e-4,6.76287 4.78347,-4.78365 1.95525,1.95525 -4.78365,4.78365 6.76313,0 0,2.75464 -6.76313,0 4.78365,4.78373 -1.95525,1.95525 -4.78347,-4.78356 0,10.9995 7.05538,7.05538 0.977624,0.977624 6.47745,6.47745 0.977624,0.977624 5.49982,5.49965 6.07775,-6.07766 0,-10.9998 -4.78373,4.78382 -1.95525,-1.95525 4.78365,-4.78365 -6.76278,0 0,-2.75464 6.76278,0 -4.78365,-4.78373 1.95525,-1.95525 4.78373,4.78373 -8.7e-5,-6.76295 2.75455,0 8.7e-5,6.76287 4.78356,-4.78365 1.95525,1.95525 -4.78365,4.78365 6.76313,0 0,2.75464 -6.76313,0 4.78365,4.78373 -1.95525,1.95525 -4.78356,-4.78356 0,10.9997 7.05529,7.05529 0.977536,0.977711 -0.977536,0.977536 -13.9324,13.9324 17.66,17.66 -1.95525,1.95525 -10.4726,-10.4727 -5.49974,5.49974 3.01766,3.01775 -1.95525,1.95525 -3.01766,-3.01775 -3.01775,3.01775 -1.95525,-1.95525 3.01775,-3.01775 -5.23208,-5.23199 -5.5,5.49982 2.74991,2.74991 -1.95516,1.95525 -2.74991,-2.74991 -2.75,2.74991 -1.95516,-1.95525 2.74991,-2.74991 -5.49982,-5.49982 -5.49965,5.49982 2.74991,2.74991 -1.95525,1.95525 -2.74991,-2.74991 -2.74991,2.74991 -1.95525,-1.95525 2.74991,-2.74991 -5.49982,-5.49974 -5.49974,5.49974 2.74982,2.74991 -1.95525,1.95525 -2.74982,-2.74991 -2.74991,2.74991 -1.95525,-1.95525 2.74991,-2.74991 -5.49982,-5.49982 -10.2049995,10.205 -1.9552500008,-1.95525 z m 69.5775,-10.4727 -5.23199,-5.23199 -5.49982,5.49974 5.23208,5.23199 5.49974,-5.49974 z m -49.9623,-9.14248 5.49982,-5.49982 -5.49982,-5.49982 -5.49982,5.49991 5.49982,5.49974 z m 7.45507,-7.45507 5.49982,-5.49982 -5.49982,-5.49982 -5.49982,5.49982 5.49982,5.49982 z m 7.45507,-7.45507 5.49982,-5.49974 -5.49982,-5.49982 -5.49982,5.49982 5.49982,5.49974 z m 7.45498,-3.54458 -5.49974,5.49982 5.49974,5.49982 5.49982,-5.49982 -5.49982,-5.49982 z m -7.45498,7.45507 -5.49982,5.49982 5.49982,5.49982 5.49982,-5.49982 -5.49982,-5.49982 z m -7.45507,7.45507 -5.49982,5.49982 5.49982,5.49982 5.49982,-5.49982 -5.49982,-5.49982 z m -7.45507,7.45507 -5.49974,5.49974 5.49982,5.49982 5.49974,-5.49974 -5.49982,-5.49982 z m 16.8654,-31.7754 5.49974,5.49982 5.49982,-5.49982 -5.49982,-5.49982 -5.49974,5.49982 z m 12.9548,1.95525 -5.49982,5.49982 5.49982,5.49974 5.49982,-5.49974 -5.49982,-5.49982 z m 1.95525,12.9548 5.49982,5.49974 5.49982,-5.49982 -5.49982,-5.49974 -5.49982,5.49982 z m 7.45507,7.45498 5.49982,5.49991 5.49982,-5.49982 -5.49982,-5.49991 -5.49982,5.49982 z m 3.54458,7.45516 -5.49982,-5.49991 -5.49982,5.49982 5.49982,5.49982 5.49982,-5.49974 z m -7.45507,-7.45516 -5.49982,-5.49974 -5.49982,5.49982 5.49982,5.49974 5.49982,-5.49982 z m -12.9549,1.95533 -5.49974,5.49982 5.49965,5.49974 5.49991,-5.49982 -5.49982,-5.49974 z m -7.45498,7.45507 -5.49982,5.49982 5.49982,5.49974 5.49974,-5.49982 -5.49974,-5.49974 z m 20.4099,5.49974 -5.49982,-5.49982 -5.5,5.49982 5.49991,5.49982 5.49991,-5.49982 z m -48.2749,-22.365 5.49982,5.49982 5.49982,-5.49991 -5.49982,-5.49982 -5.49982,5.49991 z m 65.1403,5.49974 5.49974,-5.49974 -5.49991,-5.49991 -5.49974,5.49974 5.49991,5.49991 z"
   id="path10"
   style="fill:#e31e24;fill-rule:nonzero" />
 </g>
</svg>