<?xml version="1.0" encoding="UTF-8" standalone="no"?>
<!-- Created with Inkscape (http://www.inkscape.org/) -->

<svg
   xmlns:svg="http://www.w3.org/2000/svg"
   xmlns="http://www.w3.org/2000/svg"
   version="1.1"
   width="38.738602mm"
   height="38.101601mm"
   viewBox="0 0 38.7386 38.1016"
   id="svg2"
   xml:space="preserve"
   style="fill-rule:evenodd">
 <defs
   id="defs4">
  <style
   type="text/css"
   id="style6" />
 </defs>
 <g
   id="Layer_x0020_1">
  
  <g
   id="_365025888">
   <g
   id="g11">
    <polygon
   points="18.919,8.1647 18.919,9.0719 19.8199,9.0719 19.8199,8.1647 "
   id="_342040808"
   style="fill:#e31e24" />
    <polygon
   points="18.0178,3.6286 18.0178,4.5358 18.919,4.5358 18.919,3.6286 "
   id="_342040712"
   style="fill:#e31e24" />
    <polygon
   points="18.0178,4.5358 18.0178,5.4433 18.919,5.4433 18.919,4.5358 "
   id="_342040616"
   style="fill:#e31e24" />
    <polygon
   points="18.0178,5.4433 18.0178,6.3504 18.919,6.3504 18.919,5.4433 "
   id="_342040520"
   style="fill:#e31e24" />
    <polygon
   points="18.0178,6.3504 18.0178,7.2576 18.919,7.2576 18.919,6.3504 "
   id="_342040424"
   style="fill:#e31e24" />
    <polygon
   points="18.0178,7.2576 18.0178,8.1647 18.919,8.1647 18.919,7.2576 "
   id="_342040328"
   style="fill:#e31e24" />
    <polygon
   points="18.0178,9.0719 18.0178,9.979 18.919,9.979 18.919,9.0719 "
   id="_342040232"
   style="fill:#e31e24" />
    <polygon
   points="17.117,4.5358 17.117,5.4433 18.0178,5.4433 18.0178,4.5358 "
   id="_342040136"
   style="fill:#e31e24" />
    <polygon
   points="17.117,5.4433 17.117,6.3504 18.0178,6.3504 18.0178,5.4433 "
   id="_342040040"
   style="fill:#e31e24" />
    <polygon
   points="17.117,6.3504 17.117,7.2576 18.0178,7.2576 18.0178,6.3504 "
   id="_342039944"
   style="fill:#e31e24" />
    <polygon
   points="17.117,8.1647 17.117,9.0719 18.0178,9.0719 18.0178,8.1647 "
   id="_342039848"
   style="fill:#e31e24" />
    <polygon
   points="16.2161,5.4433 16.2161,6.3504 17.117,6.3504 17.117,5.4433 "
   id="_342039752"
   style="fill:#e31e24" />
    <polygon
   points="16.2161,7.2576 16.2161,8.1647 17.117,8.1647 17.117,7.2576 "
   id="_342039656"
   style="fill:#e31e24" />
    <polygon
   points="16.2161,8.1647 16.2161,9.0719 17.117,9.0719 17.117,8.1647 "
   id="_342039560"
   style="fill:#e31e24" />
    <polygon
   points="15.3152,6.3504 15.3152,7.2576 16.2161,7.2576 16.2161,6.3504 "
   id="_342039464"
   style="fill:#e31e24" />
    <polygon
   points="15.3152,7.2576 15.3152,8.1647 16.2161,8.1647 16.2161,7.2576 "
   id="_342039368"
   style="fill:#e31e24" />
    <polygon
   points="15.3152,8.1647 15.3152,9.0719 16.2161,9.0719 16.2161,8.1647 "
   id="_342039272"
   style="fill:#e31e24" />
    <polygon
   points="14.4143,7.2576 14.4143,8.1647 15.3152,8.1647 15.3152,7.2576 "
   id="_342039176"
   style="fill:#e31e24" />
    <polygon
   points="14.4143,8.1647 14.4143,9.0719 15.3152,9.0719 15.3152,8.1647 "
   id="_342039080"
   style="fill:#e31e24" />
    <polygon
   points="13.5135,8.1647 13.5135,9.0719 14.4143,9.0719 14.4143,8.1647 "
   id="_342038984"
   style="fill:#e31e24" />
    <polygon
   points="20.7208,3.6286 20.7208,4.5358 19.8199,4.5358 19.8199,3.6286 "
   id="_342038888"
   style="fill:#e31e24" />
    <polygon
   points="20.7208,4.5358 20.7208,5.4433 19.8199,5.4433 19.8199,4.5358 "
   id="_342038792"
   style="fill:#e31e24" />
    <polygon
   points="20.7208,5.4433 20.7208,6.3504 19.8199,6.3504 19.8199,5.4433 "
   id="_342038696"
   style="fill:#e31e24" />
    <polygon
   points="20.7208,6.3504 20.7208,7.2576 19.8199,7.2576 19.8199,6.3504 "
   id="_342038600"
   style="fill:#e31e24" />
    <polygon
   points="20.7208,7.2576 20.7208,8.1647 19.8199,8.1647 19.8199,7.2576 "
   id="_342038504"
   style="fill:#e31e24" />
    <polygon
   points="20.7208,9.0719 20.7208,9.979 19.8199,9.979 19.8199,9.0719 "
   id="_342038408"
   style="fill:#e31e24" />
    <polygon
   points="21.6217,4.5358 21.6217,5.4433 20.7208,5.4433 20.7208,4.5358 "
   id="_342038312"
   style="fill:#e31e24" />
    <polygon
   points="21.6217,5.4433 21.6217,6.3504 20.7208,6.3504 20.7208,5.4433 "
   id="_342038216"
   style="fill:#e31e24" />
    <polygon
   points="21.6217,6.3504 21.6217,7.2576 20.7208,7.2576 20.7208,6.3504 "
   id="_342038120"
   style="fill:#e31e24" />
    <polygon
   points="21.6217,8.1647 21.6217,9.0719 20.7208,9.0719 20.7208,8.1647 "
   id="_342038024"
   style="fill:#e31e24" />
    <polygon
   points="22.5225,5.4433 22.5225,6.3504 21.6217,6.3504 21.6217,5.4433 "
   id="_342037928"
   style="fill:#e31e24" />
    <polygon
   points="22.5225,7.2576 22.5225,8.1647 21.6217,8.1647 21.6217,7.2576 "
   id="_342037832"
   style="fill:#e31e24" />
    <polygon
   points="22.5225,8.1647 22.5225,9.0719 21.6217,9.0719 21.6217,8.1647 "
   id="_342037736"
   style="fill:#e31e24" />
    <polygon
   points="23.4234,6.3504 23.4234,7.2576 22.5225,7.2576 22.5225,6.3504 "
   id="_342037640"
   style="fill:#e31e24" />
    <polygon
   points="23.4234,7.2576 23.4234,8.1647 22.5225,8.1647 22.5225,7.2576 "
   id="_342037544"
   style="fill:#e31e24" />
    <polygon
   points="23.4234,8.1647 23.4234,9.0719 22.5225,9.0719 22.5225,8.1647 "
   id="_342037448"
   style="fill:#e31e24" />
    <polygon
   points="24.3243,7.2576 24.3243,8.1647 23.4234,8.1647 23.4234,7.2576 "
   id="_342037352"
   style="fill:#e31e24" />
    <polygon
   points="24.3243,8.1647 24.3243,9.0719 23.4234,9.0719 23.4234,8.1647 "
   id="_342037256"
   style="fill:#e31e24" />
    <polygon
   points="25.2252,8.1647 25.2252,9.0719 24.3243,9.0719 24.3243,8.1647 "
   id="_342037160"
   style="fill:#e31e24" />
    <polygon
   points="18.919,10.8862 18.919,9.979 19.8199,9.979 19.8199,10.8862 "
   id="_342037064"
   style="fill:#e31e24" />
    <polygon
   points="18.0178,15.4219 18.0178,14.5148 18.919,14.5148 18.919,15.4219 "
   id="_342036968"
   style="fill:#e31e24" />
    <polygon
   points="18.0178,14.5148 18.0178,13.6076 18.919,13.6076 18.919,14.5148 "
   id="_342036872"
   style="fill:#e31e24" />
    <polygon
   points="18.0178,13.6076 18.0178,12.7005 18.919,12.7005 18.919,13.6076 "
   id="_342036776"
   style="fill:#e31e24" />
    <polygon
   points="18.0178,12.7005 18.0178,11.7933 18.919,11.7933 18.919,12.7005 "
   id="_342036680"
   style="fill:#e31e24" />
    <polygon
   points="18.0178,11.7933 18.0178,10.8862 18.919,10.8862 18.919,11.7933 "
   id="_342036584"
   style="fill:#e31e24" />
    <polygon
   points="17.117,14.5148 17.117,13.6076 18.0178,13.6076 18.0178,14.5148 "
   id="_342036488"
   style="fill:#e31e24" />
    <polygon
   points="17.117,13.6076 17.117,12.7005 18.0178,12.7005 18.0178,13.6076 "
   id="_342036392"
   style="fill:#e31e24" />
    <polygon
   points="17.117,12.7005 17.117,11.7933 18.0178,11.7933 18.0178,12.7005 "
   id="_342036296"
   style="fill:#e31e24" />
    <polygon
   points="17.117,10.8862 17.117,9.979 18.0178,9.979 18.0178,10.8862 "
   id="_342036200"
   style="fill:#e31e24" />
    <polygon
   points="16.2161,13.6076 16.2161,12.7005 17.117,12.7005 17.117,13.6076 "
   id="_342036104"
   style="fill:#e31e24" />
    <polygon
   points="16.2161,11.7933 16.2161,10.8862 17.117,10.8862 17.117,11.7933 "
   id="_342036008"
   style="fill:#e31e24" />
    <polygon
   points="16.2161,10.8862 16.2161,9.979 17.117,9.979 17.117,10.8862 "
   id="_342035912"
   style="fill:#e31e24" />
    <polygon
   points="15.3152,12.7005 15.3152,11.7933 16.2161,11.7933 16.2161,12.7005 "
   id="_342035816"
   style="fill:#e31e24" />
    <polygon
   points="15.3152,11.7933 15.3152,10.8862 16.2161,10.8862 16.2161,11.7933 "
   id="_342035720"
   style="fill:#e31e24" />
    <polygon
   points="15.3152,10.8862 15.3152,9.979 16.2161,9.979 16.2161,10.8862 "
   id="_342035624"
   style="fill:#e31e24" />
    <polygon
   points="14.4143,11.7933 14.4143,10.8862 15.3152,10.8862 15.3152,11.7933 "
   id="_342035528"
   style="fill:#e31e24" />
    <polygon
   points="14.4143,10.8862 14.4143,9.979 15.3152,9.979 15.3152,10.8862 "
   id="_342035432"
   style="fill:#e31e24" />
    <polygon
   points="13.5135,10.8862 13.5135,9.979 14.4143,9.979 14.4143,10.8862 "
   id="_342035336"
   style="fill:#e31e24" />
    <polygon
   points="20.7208,15.4219 20.7208,14.5148 19.8199,14.5148 19.8199,15.4219 "
   id="_342035240"
   style="fill:#e31e24" />
    <polygon
   points="20.7208,14.5148 20.7208,13.6076 19.8199,13.6076 19.8199,14.5148 "
   id="_342035144"
   style="fill:#e31e24" />
    <polygon
   points="20.7208,13.6076 20.7208,12.7005 19.8199,12.7005 19.8199,13.6076 "
   id="_342035048"
   style="fill:#e31e24" />
    <polygon
   points="20.7208,12.7005 20.7208,11.7933 19.8199,11.7933 19.8199,12.7005 "
   id="_342034952"
   style="fill:#e31e24" />
    <polygon
   points="20.7208,11.7933 20.7208,10.8862 19.8199,10.8862 19.8199,11.7933 "
   id="_342034856"
   style="fill:#e31e24" />
    <polygon
   points="21.6217,14.5148 21.6217,13.6076 20.7208,13.6076 20.7208,14.5148 "
   id="_342034760"
   style="fill:#e31e24" />
    <polygon
   points="21.6217,13.6076 21.6217,12.7005 20.7208,12.7005 20.7208,13.6076 "
   id="_342034664"
   style="fill:#e31e24" />
    <polygon
   points="21.6217,12.7005 21.6217,11.7933 20.7208,11.7933 20.7208,12.7005 "
   id="_342034568"
   style="fill:#e31e24" />
    <polygon
   points="21.6217,10.8862 21.6217,9.979 20.7208,9.979 20.7208,10.8862 "
   id="_342034472"
   style="fill:#e31e24" />
    <polygon
   points="22.5225,13.6076 22.5225,12.7005 21.6217,12.7005 21.6217,13.6076 "
   id="_342034376"
   style="fill:#e31e24" />
    <polygon
   points="22.5225,11.7933 22.5225,10.8862 21.6217,10.8862 21.6217,11.7933 "
   id="_342034280"
   style="fill:#e31e24" />
    <polygon
   points="22.5225,10.8862 22.5225,9.979 21.6217,9.979 21.6217,10.8862 "
   id="_342034184"
   style="fill:#e31e24" />
    <polygon
   points="23.4234,12.7005 23.4234,11.7933 22.5225,11.7933 22.5225,12.7005 "
   id="_342034088"
   style="fill:#e31e24" />
    <polygon
   points="23.4234,11.7933 23.4234,10.8862 22.5225,10.8862 22.5225,11.7933 "
   id="_342033992"
   style="fill:#e31e24" />
    <polygon
   points="23.4234,10.8862 23.4234,9.979 22.5225,9.979 22.5225,10.8862 "
   id="_342033896"
   style="fill:#e31e24" />
    <polygon
   points="24.3243,11.7933 24.3243,10.8862 23.4234,10.8862 23.4234,11.7933 "
   id="_342033800"
   style="fill:#e31e24" />
    <polygon
   points="24.3243,10.8862 24.3243,9.979 23.4234,9.979 23.4234,10.8862 "
   id="_342033704"
   style="fill:#e31e24" />
    <polygon
   points="25.2252,10.8862 25.2252,9.979 24.3243,9.979 24.3243,10.8862 "
   id="_342033608"
   style="fill:#e31e24" />
    <polygon
   points="12.6126,9.979 12.6126,9.0719 13.5135,9.0719 13.5135,9.979 "
   id="_342033512"
   style="fill:#2b2a29" />
    <polygon
   points="11.7117,10.8862 11.7117,9.979 12.6126,9.979 12.6126,10.8862 "
   id="_342033416"
   style="fill:#2b2a29" />
    <polygon
   points="11.7117,9.0719 11.7117,8.1647 12.6126,8.1647 12.6126,9.0719 "
   id="_342033320"
   style="fill:#2b2a29" />
    <polygon
   points="26.126,9.979 26.126,9.0719 25.2252,9.0719 25.2252,9.979 "
   id="_342033224"
   style="fill:#2b2a29" />
    <polygon
   points="27.0269,10.8862 27.0269,9.979 26.126,9.979 26.126,10.8862 "
   id="_342033128"
   style="fill:#2b2a29" />
    <polygon
   points="27.0269,9.0719 27.0269,8.1647 26.126,8.1647 26.126,9.0719 "
   id="_342033032"
   style="fill:#2b2a29" />
    <polygon
   points="18.919,2.7215 18.919,1.8143 18.0178,1.8143 18.0178,2.7215 "
   id="_342032936"
   style="fill:#2b2a29" />
    <polygon
   points="19.8199,3.6286 19.8199,2.7215 18.919,2.7215 18.919,3.6286 "
   id="_342032840"
   style="fill:#2b2a29" />
    <polygon
   points="20.7208,2.7215 20.7208,1.8143 19.8199,1.8143 19.8199,2.7215 "
   id="_342032744"
   style="fill:#2b2a29" />
    <polygon
   points="18.919,1.8143 18.919,0.9072 18.0178,0.9072 18.0178,1.8143 "
   id="_342032648"
   style="fill:#2b2a29" />
    <polygon
   points="20.7208,1.8143 20.7208,0.9072 19.8199,0.9072 19.8199,1.8143 "
   id="_342032552"
   style="fill:#2b2a29" />
    <polygon
   points="21.6217,0.9072 21.6217,0 20.7208,0 20.7208,0.9072 "
   id="_365002792"
   style="fill:#2b2a29" />
    <polygon
   points="22.5225,0.9072 22.5225,0 21.6217,0 21.6217,0.9072 "
   id="_365002696"
   style="fill:#2b2a29" />
    <polygon
   points="23.4234,1.8143 23.4234,0.9072 22.5225,0.9072 22.5225,1.8143 "
   id="_365002600"
   style="fill:#2b2a29" />
    <polygon
   points="22.5225,2.7215 22.5225,1.8143 21.6217,1.8143 21.6217,2.7215 "
   id="_365002504"
   style="fill:#2b2a29" />
    <polygon
   points="17.117,0.9072 17.117,0 18.0178,0 18.0178,0.9072 "
   id="_365002408"
   style="fill:#2b2a29" />
    <polygon
   points="16.2161,0.9072 16.2161,0 17.117,0 17.117,0.9072 "
   id="_365002312"
   style="fill:#2b2a29" />
    <polygon
   points="15.3152,1.8143 15.3152,0.9072 16.2161,0.9072 16.2161,1.8143 "
   id="_365002192"
   style="fill:#2b2a29" />
    <polygon
   points="16.2161,2.7215 16.2161,1.8143 17.117,1.8143 17.117,2.7215 "
   id="_365002120"
   style="fill:#2b2a29" />
   </g>
   <g
   id="g108">
    <polygon
   points="19.8199,19.958 19.8199,19.0508 18.919,19.0508 18.919,19.958 "
   id="_365001976"
   style="fill:#e31e24" />
    <polygon
   points="19.8199,19.0508 19.8199,18.1437 18.919,18.1437 18.919,19.0508 "
   id="_365001880"
   style="fill:#e31e24" />
    <polygon
   points="19.8199,18.1437 19.8199,17.2365 18.919,17.2365 18.919,18.1437 "
   id="_365001784"
   style="fill:#e31e24" />
    <polygon
   points="19.8199,17.2365 19.8199,16.3294 18.919,16.3294 18.919,17.2365 "
   id="_365001688"
   style="fill:#e31e24" />
    <polygon
   points="19.8199,16.3294 19.8199,15.4219 18.919,15.4219 18.919,16.3294 "
   id="_365001592"
   style="fill:#e31e24" />
    <polygon
   points="19.8199,24.4937 19.8199,23.5866 18.919,23.5866 18.919,24.4937 "
   id="_365001496"
   style="fill:#e31e24" />
    <polygon
   points="19.8199,23.5866 19.8199,22.6794 18.919,22.6794 18.919,23.5866 "
   id="_365001400"
   style="fill:#e31e24" />
    <polygon
   points="19.8199,22.6794 19.8199,21.7723 18.919,21.7723 18.919,22.6794 "
   id="_365001304"
   style="fill:#e31e24" />
    <polygon
   points="19.8199,21.7723 19.8199,20.8651 18.919,20.8651 18.919,21.7723 "
   id="_365001208"
   style="fill:#e31e24" />
    <polygon
   points="19.8199,20.8651 19.8199,19.958 18.919,19.958 18.919,20.8651 "
   id="_365001112"
   style="fill:#e31e24" />
    <polygon
   points="19.8199,27.2155 19.8199,26.3084 18.919,26.3084 18.919,27.2155 "
   id="_365001016"
   style="fill:#e31e24" />
    <polygon
   points="19.8199,26.3084 19.8199,25.4009 18.919,25.4009 18.919,26.3084 "
   id="_365000920"
   style="fill:#e31e24" />
    <polygon
   points="19.8199,25.4009 19.8199,24.4937 18.919,24.4937 18.919,25.4009 "
   id="_365000824"
   style="fill:#e31e24" />
    <polygon
   points="19.8199,31.7513 19.8199,30.8441 18.919,30.8441 18.919,31.7513 "
   id="_365000728"
   style="fill:#e31e24" />
    <polygon
   points="19.8199,30.8441 19.8199,29.937 18.919,29.937 18.919,30.8441 "
   id="_365000632"
   style="fill:#e31e24" />
    <polygon
   points="19.8199,29.937 19.8199,29.0298 18.919,29.0298 18.919,29.937 "
   id="_365000536"
   style="fill:#e31e24" />
    <polygon
   points="19.8199,29.0298 19.8199,28.1227 18.919,28.1227 18.919,29.0298 "
   id="_365000440"
   style="fill:#e31e24" />
    <polygon
   points="19.8199,28.1227 19.8199,27.2155 18.919,27.2155 18.919,28.1227 "
   id="_365000344"
   style="fill:#e31e24" />
    <polygon
   points="19.8199,36.287 19.8199,35.3799 18.919,35.3799 18.919,36.287 "
   id="_365000248"
   style="fill:#e31e24" />
    <polygon
   points="19.8199,35.3799 19.8199,34.4727 18.919,34.4727 18.919,35.3799 "
   id="_365000152"
   style="fill:#e31e24" />
    <polygon
   points="19.8199,34.4727 19.8199,33.5656 18.919,33.5656 18.919,34.4727 "
   id="_365000056"
   style="fill:#e31e24" />
    <polygon
   points="19.8199,33.5656 19.8199,32.6584 18.919,32.6584 18.919,33.5656 "
   id="_364999960"
   style="fill:#e31e24" />
    <polygon
   points="19.8199,32.6584 19.8199,31.7513 18.919,31.7513 18.919,32.6584 "
   id="_364999864"
   style="fill:#e31e24" />
    <polygon
   points="19.8199,37.1945 19.8199,36.287 18.919,36.287 18.919,37.1945 "
   id="_364999744"
   style="fill:#e31e24" />
    <polygon
   points="19.8199,38.1016 19.8199,37.1945 18.919,37.1945 18.919,38.1016 "
   id="_364999672"
   style="fill:#e31e24" />
   </g>
   <g
   id="g135">
    <polygon
   points="18.919,27.2155 18.919,26.3084 18.0178,26.3084 18.0178,27.2155 "
   id="_364999528"
   style="fill:#e31e24" />
    <polygon
   points="17.117,24.4937 17.117,23.5866 16.2161,23.5866 16.2161,24.4937 "
   id="_364999432"
   style="fill:#e31e24" />
    <polygon
   points="17.117,27.2155 17.117,26.3084 16.2161,26.3084 16.2161,27.2155 "
   id="_364999336"
   style="fill:#e31e24" />
    <polygon
   points="17.117,26.3084 17.117,25.4009 16.2161,25.4009 16.2161,26.3084 "
   id="_364999240"
   style="fill:#e31e24" />
    <polygon
   points="18.0178,27.2155 18.0178,26.3084 17.117,26.3084 17.117,27.2155 "
   id="_364999144"
   style="fill:#e31e24" />
    <polygon
   points="18.0178,26.3084 18.0178,25.4009 17.117,25.4009 17.117,26.3084 "
   id="_364999048"
   style="fill:#e31e24" />
    <polygon
   points="18.0178,25.4009 18.0178,24.4937 17.117,24.4937 17.117,25.4009 "
   id="_364998952"
   style="fill:#e31e24" />
    <polygon
   points="16.2161,23.5866 16.2161,22.6794 15.3152,22.6794 15.3152,23.5866 "
   id="_364998856"
   style="fill:#e31e24" />
    <polygon
   points="16.2161,27.2155 16.2161,26.3084 15.3152,26.3084 15.3152,27.2155 "
   id="_364998760"
   style="fill:#e31e24" />
    <polygon
   points="16.2161,26.3084 16.2161,25.4009 15.3152,25.4009 15.3152,26.3084 "
   id="_364998664"
   style="fill:#e31e24" />
    <polygon
   points="15.3152,23.5866 15.3152,22.6794 14.4143,22.6794 14.4143,23.5866 "
   id="_364998568"
   style="fill:#e31e24" />
    <polygon
   points="15.3152,22.6794 15.3152,21.7723 14.4143,21.7723 14.4143,22.6794 "
   id="_364998472"
   style="fill:#e31e24" />
    <polygon
   points="15.3152,27.2155 15.3152,26.3084 14.4143,26.3084 14.4143,27.2155 "
   id="_364998376"
   style="fill:#e31e24" />
    <polygon
   points="15.3152,26.3084 15.3152,25.4009 14.4143,25.4009 14.4143,26.3084 "
   id="_364998280"
   style="fill:#e31e24" />
    <polygon
   points="14.4143,27.2155 14.4143,26.3084 13.5135,26.3084 13.5135,27.2155 "
   id="_364998184"
   style="fill:#e31e24" />
    <polygon
   points="14.4143,26.3084 14.4143,25.4009 13.5135,25.4009 13.5135,26.3084 "
   id="_364998088"
   style="fill:#e31e24" />
    <polygon
   points="13.5135,26.3084 13.5135,25.4009 12.6126,25.4009 12.6126,26.3084 "
   id="_364997992"
   style="fill:#e31e24" />
    <polygon
   points="12.6126,25.4009 12.6126,24.4937 11.7117,24.4937 11.7117,25.4009 "
   id="_364997896"
   style="fill:#e31e24" />
    <polygon
   points="11.7117,24.4937 11.7117,23.5866 10.8109,23.5866 10.8109,24.4937 "
   id="_364997800"
   style="fill:#e31e24" />
    <polygon
   points="15.3152,23.5866 15.3152,22.6794 14.4143,22.6794 14.4143,23.5866 "
   id="_364997704"
   style="fill:#e31e24" />
    <polygon
   points="13.5135,23.5866 13.5135,22.6794 12.6126,22.6794 12.6126,23.5866 "
   id="_364997608"
   style="fill:#e31e24" />
    <polygon
   points="13.5135,22.6794 13.5135,21.7723 12.6126,21.7723 12.6126,22.6794 "
   id="_364997512"
   style="fill:#e31e24" />
    <polygon
   points="14.4143,23.5866 14.4143,22.6794 13.5135,22.6794 13.5135,23.5866 "
   id="_364997416"
   style="fill:#e31e24" />
    <polygon
   points="14.4143,22.6794 14.4143,21.7723 13.5135,21.7723 13.5135,22.6794 "
   id="_364997320"
   style="fill:#e31e24" />
    <polygon
   points="12.6126,23.5866 12.6126,22.6794 11.7117,22.6794 11.7117,23.5866 "
   id="_364997224"
   style="fill:#e31e24" />
    <polygon
   points="12.6126,22.6794 12.6126,21.7723 11.7117,21.7723 11.7117,22.6794 "
   id="_364997128"
   style="fill:#e31e24" />
    <polygon
   points="11.7117,23.5866 11.7117,22.6794 10.8109,22.6794 10.8109,23.5866 "
   id="_364997032"
   style="fill:#e31e24" />
    <polygon
   points="11.7117,22.6794 11.7117,21.7723 10.8109,21.7723 10.8109,22.6794 "
   id="_364996936"
   style="fill:#e31e24" />
    <polygon
   points="10.8109,23.5866 10.8109,22.6794 9.91,22.6794 9.91,23.5866 "
   id="_364996840"
   style="fill:#e31e24" />
    <polygon
   points="10.8109,22.6794 10.8109,21.7723 9.91,21.7723 9.91,22.6794 "
   id="_364996744"
   style="fill:#e31e24" />
    <polygon
   points="9.91,22.6794 9.91,21.7723 9.0091,21.7723 9.0091,22.6794 "
   id="_364996648"
   style="fill:#e31e24" />
    <polygon
   points="9.0091,19.958 9.0091,20.8651 8.1082,20.8651 8.1082,19.958 "
   id="_364996552"
   style="fill:#e31e24" />
    <polygon
   points="9.0091,20.8651 9.0091,21.7723 8.1082,21.7723 8.1082,20.8651 "
   id="_364996456"
   style="fill:#e31e24" />
    <polygon
   points="8.1082,19.0508 8.1082,19.958 7.207,19.958 7.207,19.0508 "
   id="_364996360"
   style="fill:#e31e24" />
    <polygon
   points="8.1082,20.8651 8.1082,21.7723 7.207,21.7723 7.207,20.8651 "
   id="_364996264"
   style="fill:#e31e24" />
    <polygon
   points="7.207,19.958 7.207,20.8651 6.3062,20.8651 6.3062,19.958 "
   id="_364996168"
   style="fill:#e31e24" />
    <polygon
   points="7.207,18.1437 7.207,19.0508 6.3062,19.0508 6.3062,18.1437 "
   id="_364996072"
   style="fill:#e31e24" />
    <polygon
   points="6.3062,18.1437 6.3062,19.0508 5.4053,19.0508 5.4053,18.1437 "
   id="_364995976"
   style="fill:#e31e24" />
    <polygon
   points="4.5044,13.6076 4.5044,14.5148 5.4053,14.5148 5.4053,13.6076 "
   id="_364995880"
   style="fill:#e31e24" />
    <polygon
   points="4.5044,14.5148 4.5044,15.4219 5.4053,15.4219 5.4053,14.5148 "
   id="_364995784"
   style="fill:#e31e24" />
    <polygon
   points="4.5044,15.4219 4.5044,16.3294 5.4053,16.3294 5.4053,15.4219 "
   id="_364995688"
   style="fill:#e31e24" />
    <polygon
   points="4.5044,16.3294 4.5044,17.2365 5.4053,17.2365 5.4053,16.3294 "
   id="_364995592"
   style="fill:#e31e24" />
    <polygon
   points="4.5044,17.2365 4.5044,18.1437 5.4053,18.1437 5.4053,17.2365 "
   id="_364995496"
   style="fill:#e31e24" />
    <polygon
   points="3.6035,12.7005 3.6035,13.6076 4.5044,13.6076 4.5044,12.7005 "
   id="_364995400"
   style="fill:#e31e24" />
    <polygon
   points="3.6035,13.6076 3.6035,14.5148 4.5044,14.5148 4.5044,13.6076 "
   id="_364995304"
   style="fill:#e31e24" />
    <polygon
   points="3.6035,14.5148 3.6035,15.4219 4.5044,15.4219 4.5044,14.5148 "
   id="_364995208"
   style="fill:#e31e24" />
    <polygon
   points="3.6035,15.4219 3.6035,16.3294 4.5044,16.3294 4.5044,15.4219 "
   id="_364995112"
   style="fill:#e31e24" />
    <polygon
   points="3.6035,16.3294 3.6035,17.2365 4.5044,17.2365 4.5044,16.3294 "
   id="_364995016"
   style="fill:#e31e24" />
    <polygon
   points="3.6035,17.2365 3.6035,18.1437 4.5044,18.1437 4.5044,17.2365 "
   id="_364994920"
   style="fill:#e31e24" />
    <polygon
   points="2.7027,13.6076 2.7027,14.5148 3.6035,14.5148 3.6035,13.6076 "
   id="_364994824"
   style="fill:#e31e24" />
    <polygon
   points="2.7027,14.5148 2.7027,15.4219 3.6035,15.4219 3.6035,14.5148 "
   id="_364994728"
   style="fill:#e31e24" />
    <polygon
   points="2.7027,15.4219 2.7027,16.3294 3.6035,16.3294 3.6035,15.4219 "
   id="_364994632"
   style="fill:#e31e24" />
    <polygon
   points="2.7027,16.3294 2.7027,17.2365 3.6035,17.2365 3.6035,16.3294 "
   id="_364994536"
   style="fill:#e31e24" />
    <polygon
   points="2.7027,17.2365 2.7027,18.1437 3.6035,18.1437 3.6035,17.2365 "
   id="_364994440"
   style="fill:#e31e24" />
    <polygon
   points="1.8018,14.5148 1.8018,15.4219 2.7027,15.4219 2.7027,14.5148 "
   id="_364994344"
   style="fill:#e31e24" />
    <polygon
   points="1.8018,15.4219 1.8018,16.3294 2.7027,16.3294 2.7027,15.4219 "
   id="_364994248"
   style="fill:#e31e24" />
    <polygon
   points="1.8018,16.3294 1.8018,17.2365 2.7027,17.2365 2.7027,16.3294 "
   id="_364994152"
   style="fill:#e31e24" />
    <polygon
   points="1.8018,17.2365 1.8018,18.1437 2.7027,18.1437 2.7027,17.2365 "
   id="_364994056"
   style="fill:#e31e24" />
    <polygon
   points="0.9009,15.4219 0.9009,16.3294 1.8018,16.3294 1.8018,15.4219 "
   id="_364993960"
   style="fill:#e31e24" />
    <polygon
   points="0.9009,16.3294 0.9009,17.2365 1.8018,17.2365 1.8018,16.3294 "
   id="_364993864"
   style="fill:#e31e24" />
    <polygon
   points="0.9009,17.2365 0.9009,18.1437 1.8018,18.1437 1.8018,17.2365 "
   id="_364993768"
   style="fill:#e31e24" />
    <polygon
   points="0.9009,14.5148 0.9009,13.6076 1.8018,13.6076 1.8018,14.5148 "
   id="_364993672"
   style="fill:#2b2a29" />
    <polygon
   points="0.9009,13.6076 0.9009,12.7005 1.8018,12.7005 1.8018,13.6076 "
   id="_364993576"
   style="fill:#2b2a29" />
    <polygon
   points="1.8018,13.6076 1.8018,12.7005 2.7027,12.7005 2.7027,13.6076 "
   id="_364993480"
   style="fill:#2b2a29" />
    <polygon
   points="0,12.7005 0,11.7933 0.9009,11.7933 0.9009,12.7005 "
   id="_364993384"
   style="fill:#2b2a29" />
    <polygon
   points="0.9009,22.6794 0.9009,21.7723 1.8018,21.7723 1.8018,22.6794 "
   id="_364993288"
   style="fill:#2b2a29" />
    <polygon
   points="1.8018,22.6794 1.8018,21.7723 2.7027,21.7723 2.7027,22.6794 "
   id="_364993192"
   style="fill:#2b2a29" />
    <polygon
   points="9.0091,14.5148 9.0091,13.6076 9.91,13.6076 9.91,14.5148 "
   id="_364993096"
   style="fill:#2b2a29" />
    <polygon
   points="9.0091,15.4219 9.0091,14.5148 9.91,14.5148 9.91,15.4219 "
   id="_364993000"
   style="fill:#2b2a29" />
    <polygon
   points="12.6126,17.2365 12.6126,18.1437 13.5135,18.1437 13.5135,17.2365 "
   id="_364992904"
   style="fill:#e31e24" />
    <polygon
   points="12.6126,18.1437 12.6126,19.0508 13.5135,19.0508 13.5135,18.1437 "
   id="_364992808"
   style="fill:#e31e24" />
    <polygon
   points="12.6126,19.0508 12.6126,19.958 13.5135,19.958 13.5135,19.0508 "
   id="_364992712"
   style="fill:#e31e24" />
    <polygon
   points="12.6126,19.958 12.6126,20.8651 13.5135,20.8651 13.5135,19.958 "
   id="_364992616"
   style="fill:#e31e24" />
    <polygon
   points="11.7117,16.3294 11.7117,17.2365 12.6126,17.2365 12.6126,16.3294 "
   id="_364992520"
   style="fill:#e31e24" />
    <polygon
   points="11.7117,17.2365 11.7117,18.1437 12.6126,18.1437 12.6126,17.2365 "
   id="_364992424"
   style="fill:#e31e24" />
    <polygon
   points="11.7117,18.1437 11.7117,19.0508 12.6126,19.0508 12.6126,18.1437 "
   id="_364992328"
   style="fill:#e31e24" />
    <polygon
   points="11.7117,19.0508 11.7117,19.958 12.6126,19.958 12.6126,19.0508 "
   id="_364992232"
   style="fill:#e31e24" />
    <polygon
   points="11.7117,19.958 11.7117,20.8651 12.6126,20.8651 12.6126,19.958 "
   id="_364992136"
   style="fill:#e31e24" />
    <polygon
   points="11.7117,20.8651 11.7117,21.7723 12.6126,21.7723 12.6126,20.8651 "
   id="_364992040"
   style="fill:#e31e24" />
    <polygon
   points="10.8109,17.2365 10.8109,18.1437 11.7117,18.1437 11.7117,17.2365 "
   id="_364991944"
   style="fill:#e31e24" />
    <polygon
   points="10.8109,18.1437 10.8109,19.0508 11.7117,19.0508 11.7117,18.1437 "
   id="_364991848"
   style="fill:#e31e24" />
    <polygon
   points="10.8109,19.0508 10.8109,19.958 11.7117,19.958 11.7117,19.0508 "
   id="_364991752"
   style="fill:#e31e24" />
    <polygon
   points="10.8109,19.958 10.8109,20.8651 11.7117,20.8651 11.7117,19.958 "
   id="_364991656"
   style="fill:#e31e24" />
    <polygon
   points="10.8109,16.3294 10.8109,15.4219 11.7117,15.4219 11.7117,16.3294 "
   id="_364991560"
   style="fill:#2b2a29" />
    <polygon
   points="12.6126,16.3294 12.6126,15.4219 13.5135,15.4219 13.5135,16.3294 "
   id="_364991464"
   style="fill:#2b2a29" />
    <polygon
   points="9.91,19.0508 9.91,18.1437 10.8109,18.1437 10.8109,19.0508 "
   id="_364991368"
   style="fill:#2b2a29" />
    <polygon
   points="9.91,19.958 9.91,19.0508 10.8109,19.0508 10.8109,19.958 "
   id="_364991272"
   style="fill:#2b2a29" />
    <polygon
   points="13.5135,19.0508 13.5135,18.1437 14.4143,18.1437 14.4143,19.0508 "
   id="_364991176"
   style="fill:#2b2a29" />
    <polygon
   points="13.5135,19.958 13.5135,19.0508 14.4143,19.0508 14.4143,19.958 "
   id="_364991080"
   style="fill:#2b2a29" />
    <polygon
   points="14.4143,24.4937 14.4143,23.5866 13.5135,23.5866 13.5135,24.4937 "
   id="_364990984"
   style="fill:#e31e24" />
    <polygon
   points="14.4143,25.4009 14.4143,24.4937 13.5135,24.4937 13.5135,25.4009 "
   id="_364990888"
   style="fill:#e31e24" />
    <polygon
   points="1.8018,21.7723 1.8018,20.8651 0.9009,20.8651 0.9009,21.7723 "
   id="_364990792"
   style="fill:#e31e24" />
    <polygon
   points="1.8018,20.8651 1.8018,19.958 0.9009,19.958 0.9009,20.8651 "
   id="_364990696"
   style="fill:#e31e24" />
    <polygon
   points="1.8018,19.958 1.8018,19.0508 0.9009,19.0508 0.9009,19.958 "
   id="_364990600"
   style="fill:#e31e24" />
    <polygon
   points="2.7027,21.7723 2.7027,20.8651 1.8018,20.8651 1.8018,21.7723 "
   id="_364990504"
   style="fill:#e31e24" />
    <polygon
   points="2.7027,20.8651 2.7027,19.958 1.8018,19.958 1.8018,20.8651 "
   id="_364990408"
   style="fill:#e31e24" />
    <polygon
   points="2.7027,19.958 2.7027,19.0508 1.8018,19.0508 1.8018,19.958 "
   id="_364990312"
   style="fill:#e31e24" />
    <polygon
   points="0.9009,20.8651 0.9009,19.958 0,19.958 0,20.8651 "
   id="_364990216"
   style="fill:#e31e24" />
    <polygon
   points="3.6035,21.7723 3.6035,20.8651 2.7027,20.8651 2.7027,21.7723 "
   id="_364990120"
   style="fill:#e31e24" />
    <polygon
   points="3.6035,20.8651 3.6035,19.958 2.7027,19.958 2.7027,20.8651 "
   id="_364990024"
   style="fill:#e31e24" />
    <polygon
   points="3.6035,19.958 3.6035,19.0508 2.7027,19.0508 2.7027,19.958 "
   id="_364989928"
   style="fill:#e31e24" />
    <polygon
   points="0.9009,21.7723 0.9009,20.8651 0,20.8651 0,21.7723 "
   id="_364989832"
   style="fill:#e31e24" />
    <polygon
   points="4.5044,20.8651 4.5044,19.958 3.6035,19.958 3.6035,20.8651 "
   id="_364989736"
   style="fill:#e31e24" />
    <polygon
   points="4.5044,19.958 4.5044,19.0508 3.6035,19.0508 3.6035,19.958 "
   id="_364989640"
   style="fill:#e31e24" />
    <polygon
   points="5.4053,19.958 5.4053,19.0508 4.5044,19.0508 4.5044,19.958 "
   id="_364989544"
   style="fill:#e31e24" />
    <polygon
   points="8.1082,13.6076 8.1082,14.5148 9.0091,14.5148 9.0091,13.6076 "
   id="_364989448"
   style="fill:#e31e24" />
    <polygon
   points="8.1082,14.5148 8.1082,15.4219 9.0091,15.4219 9.0091,14.5148 "
   id="_364989352"
   style="fill:#e31e24" />
    <polygon
   points="8.1082,15.4219 8.1082,16.3294 9.0091,16.3294 9.0091,15.4219 "
   id="_364989256"
   style="fill:#e31e24" />
    <polygon
   points="7.207,13.6076 7.207,14.5148 8.1082,14.5148 8.1082,13.6076 "
   id="_364989160"
   style="fill:#e31e24" />
    <polygon
   points="7.207,14.5148 7.207,15.4219 8.1082,15.4219 8.1082,14.5148 "
   id="_364989064"
   style="fill:#e31e24" />
    <polygon
   points="7.207,15.4219 7.207,16.3294 8.1082,16.3294 8.1082,15.4219 "
   id="_364988968"
   style="fill:#e31e24" />
    <polygon
   points="7.207,16.3294 7.207,17.2365 8.1082,17.2365 8.1082,16.3294 "
   id="_364988872"
   style="fill:#e31e24" />
    <polygon
   points="6.3062,13.6076 6.3062,14.5148 7.207,14.5148 7.207,13.6076 "
   id="_364988776"
   style="fill:#e31e24" />
    <polygon
   points="6.3062,14.5148 6.3062,15.4219 7.207,15.4219 7.207,14.5148 "
   id="_364988680"
   style="fill:#e31e24" />
    <polygon
   points="6.3062,15.4219 6.3062,16.3294 7.207,16.3294 7.207,15.4219 "
   id="_364988584"
   style="fill:#e31e24" />
    <polygon
   points="6.3062,16.3294 6.3062,17.2365 7.207,17.2365 7.207,16.3294 "
   id="_364988488"
   style="fill:#e31e24" />
    <polygon
   points="6.3062,17.2365 6.3062,18.1437 7.207,18.1437 7.207,17.2365 "
   id="_364988392"
   style="fill:#e31e24" />
    <polygon
   points="8.1082,12.7005 8.1082,13.6076 9.0091,13.6076 9.0091,12.7005 "
   id="_364988296"
   style="fill:#e31e24" />
    <polygon
   points="7.207,12.7005 7.207,13.6076 8.1082,13.6076 8.1082,12.7005 "
   id="_364988200"
   style="fill:#e31e24" />
    <polygon
   points="17.117,16.3294 17.117,15.4219 18.0178,15.4219 18.0178,16.3294 "
   id="_364988104"
   style="fill:#2b2a29" />
    <polygon
   points="17.117,20.8651 17.117,19.958 18.0178,19.958 18.0178,20.8651 "
   id="_364988008"
   style="fill:#2b2a29" />
    <polygon
   points="18.0178,21.7723 18.0178,20.8651 18.919,20.8651 18.919,21.7723 "
   id="_364987912"
   style="fill:#2b2a29" />
    <polygon
   points="18.919,33.5656 18.919,32.6584 18.0178,32.6584 18.0178,33.5656 "
   id="_364987816"
   style="fill:#e31e24" />
    <polygon
   points="18.919,32.6584 18.919,31.7513 18.0178,31.7513 18.0178,32.6584 "
   id="_364987720"
   style="fill:#e31e24" />
    <polygon
   points="18.919,36.287 18.919,35.3799 18.0178,35.3799 18.0178,36.287 "
   id="_364987624"
   style="fill:#e31e24" />
    <polygon
   points="18.0178,31.7513 18.0178,30.8441 17.117,30.8441 17.117,31.7513 "
   id="_364987528"
   style="fill:#e31e24" />
    <polygon
   points="17.117,30.8441 17.117,29.937 16.2161,29.937 16.2161,30.8441 "
   id="_364987432"
   style="fill:#e31e24" />
    <polygon
   points="16.2161,30.8441 16.2161,29.937 15.3152,29.937 15.3152,30.8441 "
   id="_364987336"
   style="fill:#e31e24" />
    <polygon
   points="15.3152,30.8441 15.3152,29.937 14.4143,29.937 14.4143,30.8441 "
   id="_364987240"
   style="fill:#e31e24" />
    <polygon
   points="14.4143,31.7513 14.4143,30.8441 13.5135,30.8441 13.5135,31.7513 "
   id="_364987144"
   style="fill:#e31e24" />
    <polygon
   points="13.5135,31.7513 13.5135,30.8441 12.6126,30.8441 12.6126,31.7513 "
   id="_364987048"
   style="fill:#e31e24" />
    <polygon
   points="12.6126,31.7513 12.6126,30.8441 11.7117,30.8441 11.7117,31.7513 "
   id="_364986952"
   style="fill:#e31e24" />
    <polygon
   points="15.3152,33.5656 15.3152,34.4727 16.2161,34.4727 16.2161,33.5656 "
   id="_364986856"
   style="fill:#e31e24" />
    <polygon
   points="16.2161,34.4727 16.2161,35.3799 17.117,35.3799 17.117,34.4727 "
   id="_364986760"
   style="fill:#e31e24" />
    <polygon
   points="15.3152,35.3799 15.3152,36.287 16.2161,36.287 16.2161,35.3799 "
   id="_364986664"
   style="fill:#e31e24" />
    <polygon
   points="14.4143,31.7513 14.4143,32.6584 15.3152,32.6584 15.3152,31.7513 "
   id="_364986568"
   style="fill:#e31e24" />
    <polygon
   points="14.4143,32.6584 14.4143,33.5656 15.3152,33.5656 15.3152,32.6584 "
   id="_364986472"
   style="fill:#e31e24" />
    <polygon
   points="14.4143,34.4727 14.4143,35.3799 15.3152,35.3799 15.3152,34.4727 "
   id="_364986376"
   style="fill:#2b2a29" />
    <polygon
   points="14.4143,35.3799 14.4143,36.287 15.3152,36.287 15.3152,35.3799 "
   id="_364986280"
   style="fill:#e31e24" />
    <polygon
   points="14.4143,36.287 14.4143,37.1945 15.3152,37.1945 15.3152,36.287 "
   id="_364986184"
   style="fill:#e31e24" />
    <polygon
   points="13.5135,33.5656 13.5135,34.4727 14.4143,34.4727 14.4143,33.5656 "
   id="_364986088"
   style="fill:#e31e24" />
    <polygon
   points="12.6126,34.4727 12.6126,35.3799 13.5135,35.3799 13.5135,34.4727 "
   id="_364985992"
   style="fill:#e31e24" />
    <polygon
   points="13.5135,35.3799 13.5135,36.287 14.4143,36.287 14.4143,35.3799 "
   id="_364985896"
   style="fill:#e31e24" />
    <polygon
   points="18.0178,37.1945 18.0178,36.287 17.117,36.287 17.117,37.1945 "
   id="_364985800"
   style="fill:#e31e24" />
    <polygon
   points="17.117,38.1016 17.117,37.1945 16.2161,37.1945 16.2161,38.1016 "
   id="_364985704"
   style="fill:#e31e24" />
    <polygon
   points="18.919,38.1016 18.919,37.1945 18.0178,37.1945 18.0178,38.1016 "
   id="_364985608"
   style="fill:#e31e24" />
    <g
   id="g283">
     <polygon
   points="11.7117,30.8441 11.7117,31.7513 12.6126,31.7513 12.6126,30.8441 "
   id="_364985512"
   style="fill:#e31e24" />
     <polygon
   points="10.8109,29.937 10.8109,30.8441 11.7117,30.8441 11.7117,29.937 "
   id="_364985416"
   style="fill:#e31e24" />
     <polygon
   points="10.8109,30.8441 10.8109,31.7513 11.7117,31.7513 11.7117,30.8441 "
   id="_364985320"
   style="fill:#e31e24" />
     <polygon
   points="10.8109,31.7513 10.8109,32.6584 11.7117,32.6584 11.7117,31.7513 "
   id="_364985224"
   style="fill:#e31e24" />
     <polygon
   points="9.91,29.0298 9.91,29.937 10.8109,29.937 10.8109,29.0298 "
   id="_364985128"
   style="fill:#e31e24" />
     <polygon
   points="9.91,29.937 9.91,30.8441 10.8109,30.8441 10.8109,29.937 "
   id="_364985032"
   style="fill:#e31e24" />
     <polygon
   points="9.91,30.8441 9.91,31.7513 10.8109,31.7513 10.8109,30.8441 "
   id="_364984936"
   style="fill:#e31e24" />
     <polygon
   points="9.91,31.7513 9.91,32.6584 10.8109,32.6584 10.8109,31.7513 "
   id="_364984840"
   style="fill:#e31e24" />
     <polygon
   points="9.91,32.6584 9.91,33.5656 10.8109,33.5656 10.8109,32.6584 "
   id="_364984744"
   style="fill:#e31e24" />
     <polygon
   points="9.0091,28.1227 9.0091,29.0298 9.91,29.0298 9.91,28.1227 "
   id="_364984648"
   style="fill:#e31e24" />
     <polygon
   points="9.0091,29.0298 9.0091,29.937 9.91,29.937 9.91,29.0298 "
   id="_364984552"
   style="fill:#e31e24" />
     <polygon
   points="9.0091,29.937 9.0091,30.8441 9.91,30.8441 9.91,29.937 "
   id="_364984456"
   style="fill:#e31e24" />
     <polygon
   points="9.0091,30.8441 9.0091,31.7513 9.91,31.7513 9.91,30.8441 "
   id="_364984360"
   style="fill:#e31e24" />
     <polygon
   points="9.0091,31.7513 9.0091,32.6584 9.91,32.6584 9.91,31.7513 "
   id="_364984264"
   style="fill:#e31e24" />
     <polygon
   points="9.0091,32.6584 9.0091,33.5656 9.91,33.5656 9.91,32.6584 "
   id="_364984168"
   style="fill:#e31e24" />
     <polygon
   points="9.0091,33.5656 9.0091,34.4727 9.91,34.4727 9.91,33.5656 "
   id="_364984072"
   style="fill:#e31e24" />
     <polygon
   points="7.207,28.1227 7.207,29.0298 8.1082,29.0298 8.1082,28.1227 "
   id="_364983976"
   style="fill:#e31e24" />
     <polygon
   points="7.207,29.0298 7.207,29.937 8.1082,29.937 8.1082,29.0298 "
   id="_364983880"
   style="fill:#e31e24" />
     <polygon
   points="7.207,29.937 7.207,30.8441 8.1082,30.8441 8.1082,29.937 "
   id="_364983784"
   style="fill:#e31e24" />
     <polygon
   points="7.207,30.8441 7.207,31.7513 8.1082,31.7513 8.1082,30.8441 "
   id="_364983688"
   style="fill:#e31e24" />
     <polygon
   points="7.207,31.7513 7.207,32.6584 8.1082,32.6584 8.1082,31.7513 "
   id="_364983592"
   style="fill:#e31e24" />
     <polygon
   points="7.207,32.6584 7.207,33.5656 8.1082,33.5656 8.1082,32.6584 "
   id="_364983496"
   style="fill:#e31e24" />
     <polygon
   points="7.207,33.5656 7.207,34.4727 8.1082,34.4727 8.1082,33.5656 "
   id="_364983400"
   style="fill:#e31e24" />
     <polygon
   points="6.3062,29.0298 6.3062,29.937 7.207,29.937 7.207,29.0298 "
   id="_364983304"
   style="fill:#e31e24" />
     <polygon
   points="6.3062,29.937 6.3062,30.8441 7.207,30.8441 7.207,29.937 "
   id="_364983208"
   style="fill:#e31e24" />
     <polygon
   points="6.3062,30.8441 6.3062,31.7513 7.207,31.7513 7.207,30.8441 "
   id="_364983112"
   style="fill:#e31e24" />
     <polygon
   points="6.3062,31.7513 6.3062,32.6584 7.207,32.6584 7.207,31.7513 "
   id="_364983016"
   style="fill:#e31e24" />
     <polygon
   points="6.3062,32.6584 6.3062,33.5656 7.207,33.5656 7.207,32.6584 "
   id="_364982920"
   style="fill:#e31e24" />
     <polygon
   points="5.4053,29.937 5.4053,30.8441 6.3062,30.8441 6.3062,29.937 "
   id="_364982824"
   style="fill:#e31e24" />
     <polygon
   points="5.4053,30.8441 5.4053,31.7513 6.3062,31.7513 6.3062,30.8441 "
   id="_364982728"
   style="fill:#e31e24" />
     <polygon
   points="5.4053,31.7513 5.4053,32.6584 6.3062,32.6584 6.3062,31.7513 "
   id="_364982632"
   style="fill:#e31e24" />
     <polygon
   points="4.5044,30.8441 4.5044,31.7513 5.4053,31.7513 5.4053,30.8441 "
   id="_364982536"
   style="fill:#e31e24" />
     <polygon
   points="8.1082,28.1227 8.1082,29.0298 9.0091,29.0298 9.0091,28.1227 "
   id="_364982440"
   style="fill:#e31e24" />
     <polygon
   points="8.1082,29.0298 8.1082,29.937 9.0091,29.937 9.0091,29.0298 "
   id="_364982344"
   style="fill:#e31e24" />
     <polygon
   points="8.1082,29.937 8.1082,30.8441 9.0091,30.8441 9.0091,29.937 "
   id="_364982248"
   style="fill:#e31e24" />
     <polygon
   points="8.1082,30.8441 8.1082,31.7513 9.0091,31.7513 9.0091,30.8441 "
   id="_364982152"
   style="fill:#e31e24" />
     <polygon
   points="8.1082,31.7513 8.1082,32.6584 9.0091,32.6584 9.0091,31.7513 "
   id="_364982056"
   style="fill:#e31e24" />
     <polygon
   points="8.1082,32.6584 8.1082,33.5656 9.0091,33.5656 9.0091,32.6584 "
   id="_364981936"
   style="fill:#e31e24" />
     <polygon
   points="8.1082,33.5656 8.1082,34.4727 9.0091,34.4727 9.0091,33.5656 "
   id="_364981864"
   style="fill:#e31e24" />
    </g>
    <polygon
   points="4.5044,33.5656 4.5044,34.4727 5.4053,34.4727 5.4053,33.5656 "
   id="_364981720"
   style="fill:#2b2a29" />
    <polygon
   points="3.6035,31.7513 3.6035,32.6584 4.5044,32.6584 4.5044,31.7513 "
   id="_364981624"
   style="fill:#2b2a29" />
    <polygon
   points="3.6035,32.6584 3.6035,33.5656 4.5044,33.5656 4.5044,32.6584 "
   id="_364981528"
   style="fill:#2b2a29" />
    <polygon
   points="4.5044,29.0298 4.5044,28.1227 5.4053,28.1227 5.4053,29.0298 "
   id="_364981432"
   style="fill:#2b2a29" />
    <polygon
   points="3.6035,30.8441 3.6035,29.937 4.5044,29.937 4.5044,30.8441 "
   id="_364981312"
   style="fill:#2b2a29" />
    <polygon
   points="3.6035,29.937 3.6035,29.0298 4.5044,29.0298 4.5044,29.937 "
   id="_364981240"
   style="fill:#2b2a29" />
   </g>
   <g
   id="g330">
    <polygon
   points="19.8199,27.2155 19.8199,26.3084 20.7208,26.3084 20.7208,27.2155 "
   id="_364981096"
   style="fill:#e31e24" />
    <polygon
   points="21.6217,24.4937 21.6217,23.5866 22.5225,23.5866 22.5225,24.4937 "
   id="_364981000"
   style="fill:#e31e24" />
    <polygon
   points="21.6217,27.2155 21.6217,26.3084 22.5225,26.3084 22.5225,27.2155 "
   id="_364980904"
   style="fill:#e31e24" />
    <polygon
   points="21.6217,26.3084 21.6217,25.4009 22.5225,25.4009 22.5225,26.3084 "
   id="_364980808"
   style="fill:#e31e24" />
    <polygon
   points="20.7208,27.2155 20.7208,26.3084 21.6217,26.3084 21.6217,27.2155 "
   id="_364980712"
   style="fill:#e31e24" />
    <polygon
   points="20.7208,26.3084 20.7208,25.4009 21.6217,25.4009 21.6217,26.3084 "
   id="_364980616"
   style="fill:#e31e24" />
    <polygon
   points="20.7208,25.4009 20.7208,24.4937 21.6217,24.4937 21.6217,25.4009 "
   id="_364980520"
   style="fill:#e31e24" />
    <polygon
   points="22.5225,23.5866 22.5225,22.6794 23.4234,22.6794 23.4234,23.5866 "
   id="_364980424"
   style="fill:#e31e24" />
    <polygon
   points="22.5225,27.2155 22.5225,26.3084 23.4234,26.3084 23.4234,27.2155 "
   id="_364980328"
   style="fill:#e31e24" />
    <polygon
   points="22.5225,26.3084 22.5225,25.4009 23.4234,25.4009 23.4234,26.3084 "
   id="_364980232"
   style="fill:#e31e24" />
    <polygon
   points="23.4234,23.5866 23.4234,22.6794 24.3243,22.6794 24.3243,23.5866 "
   id="_364980136"
   style="fill:#e31e24" />
    <polygon
   points="23.4234,22.6794 23.4234,21.7723 24.3243,21.7723 24.3243,22.6794 "
   id="_364980040"
   style="fill:#e31e24" />
    <polygon
   points="23.4234,27.2155 23.4234,26.3084 24.3243,26.3084 24.3243,27.2155 "
   id="_364979944"
   style="fill:#e31e24" />
    <polygon
   points="23.4234,26.3084 23.4234,25.4009 24.3243,25.4009 24.3243,26.3084 "
   id="_364979848"
   style="fill:#e31e24" />
    <polygon
   points="24.3243,27.2155 24.3243,26.3084 25.2252,26.3084 25.2252,27.2155 "
   id="_364979752"
   style="fill:#e31e24" />
    <polygon
   points="24.3243,26.3084 24.3243,25.4009 25.2252,25.4009 25.2252,26.3084 "
   id="_364979656"
   style="fill:#e31e24" />
    <polygon
   points="25.2252,26.3084 25.2252,25.4009 26.126,25.4009 26.126,26.3084 "
   id="_364979560"
   style="fill:#e31e24" />
    <polygon
   points="26.126,25.4009 26.126,24.4937 27.0269,24.4937 27.0269,25.4009 "
   id="_364979464"
   style="fill:#e31e24" />
    <polygon
   points="27.0269,24.4937 27.0269,23.5866 27.9278,23.5866 27.9278,24.4937 "
   id="_364979368"
   style="fill:#e31e24" />
    <polygon
   points="23.4234,23.5866 23.4234,22.6794 24.3243,22.6794 24.3243,23.5866 "
   id="_364979272"
   style="fill:#e31e24" />
    <polygon
   points="25.2252,23.5866 25.2252,22.6794 26.126,22.6794 26.126,23.5866 "
   id="_364979176"
   style="fill:#e31e24" />
    <polygon
   points="25.2252,22.6794 25.2252,21.7723 26.126,21.7723 26.126,22.6794 "
   id="_364979080"
   style="fill:#e31e24" />
    <polygon
   points="24.3243,23.5866 24.3243,22.6794 25.2252,22.6794 25.2252,23.5866 "
   id="_364978984"
   style="fill:#e31e24" />
    <polygon
   points="24.3243,22.6794 24.3243,21.7723 25.2252,21.7723 25.2252,22.6794 "
   id="_364978888"
   style="fill:#e31e24" />
    <polygon
   points="26.126,23.5866 26.126,22.6794 27.0269,22.6794 27.0269,23.5866 "
   id="_364978792"
   style="fill:#e31e24" />
    <polygon
   points="26.126,22.6794 26.126,21.7723 27.0269,21.7723 27.0269,22.6794 "
   id="_364978696"
   style="fill:#e31e24" />
    <polygon
   points="27.0269,23.5866 27.0269,22.6794 27.9278,22.6794 27.9278,23.5866 "
   id="_364978600"
   style="fill:#e31e24" />
    <polygon
   points="27.0269,22.6794 27.0269,21.7723 27.9278,21.7723 27.9278,22.6794 "
   id="_364978504"
   style="fill:#e31e24" />
    <polygon
   points="27.9278,23.5866 27.9278,22.6794 28.8287,22.6794 28.8287,23.5866 "
   id="_364978408"
   style="fill:#e31e24" />
    <polygon
   points="27.9278,22.6794 27.9278,21.7723 28.8287,21.7723 28.8287,22.6794 "
   id="_364978312"
   style="fill:#e31e24" />
    <polygon
   points="28.8287,22.6794 28.8287,21.7723 29.7299,21.7723 29.7299,22.6794 "
   id="_364978216"
   style="fill:#e31e24" />
    <polygon
   points="29.7299,19.958 29.7299,20.8651 30.6307,20.8651 30.6307,19.958 "
   id="_364978120"
   style="fill:#e31e24" />
    <polygon
   points="29.7299,20.8651 29.7299,21.7723 30.6307,21.7723 30.6307,20.8651 "
   id="_364978024"
   style="fill:#e31e24" />
    <polygon
   points="30.6307,19.0508 30.6307,19.958 31.5316,19.958 31.5316,19.0508 "
   id="_364977928"
   style="fill:#e31e24" />
    <polygon
   points="30.6307,20.8651 30.6307,21.7723 31.5316,21.7723 31.5316,20.8651 "
   id="_364977832"
   style="fill:#e31e24" />
    <polygon
   points="31.5316,19.958 31.5316,20.8651 32.4325,20.8651 32.4325,19.958 "
   id="_364977736"
   style="fill:#e31e24" />
    <polygon
   points="31.5316,18.1437 31.5316,19.0508 32.4325,19.0508 32.4325,18.1437 "
   id="_364977640"
   style="fill:#e31e24" />
    <polygon
   points="32.4325,18.1437 32.4325,19.0508 33.3334,19.0508 33.3334,18.1437 "
   id="_364977544"
   style="fill:#e31e24" />
    <polygon
   points="34.2342,13.6076 34.2342,14.5148 33.3334,14.5148 33.3334,13.6076 "
   id="_364977448"
   style="fill:#e31e24" />
    <polygon
   points="34.2342,14.5148 34.2342,15.4219 33.3334,15.4219 33.3334,14.5148 "
   id="_364977352"
   style="fill:#e31e24" />
    <polygon
   points="34.2342,15.4219 34.2342,16.3294 33.3334,16.3294 33.3334,15.4219 "
   id="_364977256"
   style="fill:#e31e24" />
    <polygon
   points="34.2342,16.3294 34.2342,17.2365 33.3334,17.2365 33.3334,16.3294 "
   id="_364977160"
   style="fill:#e31e24" />
    <polygon
   points="34.2342,17.2365 34.2342,18.1437 33.3334,18.1437 33.3334,17.2365 "
   id="_364977064"
   style="fill:#e31e24" />
    <polygon
   points="35.1351,12.7005 35.1351,13.6076 34.2342,13.6076 34.2342,12.7005 "
   id="_364976968"
   style="fill:#e31e24" />
    <polygon
   points="35.1351,13.6076 35.1351,14.5148 34.2342,14.5148 34.2342,13.6076 "
   id="_364976872"
   style="fill:#e31e24" />
    <polygon
   points="35.1351,14.5148 35.1351,15.4219 34.2342,15.4219 34.2342,14.5148 "
   id="_364976776"
   style="fill:#e31e24" />
    <polygon
   points="35.1351,15.4219 35.1351,16.3294 34.2342,16.3294 34.2342,15.4219 "
   id="_364976680"
   style="fill:#e31e24" />
    <polygon
   points="35.1351,16.3294 35.1351,17.2365 34.2342,17.2365 34.2342,16.3294 "
   id="_364976584"
   style="fill:#e31e24" />
    <polygon
   points="35.1351,17.2365 35.1351,18.1437 34.2342,18.1437 34.2342,17.2365 "
   id="_364976488"
   style="fill:#e31e24" />
    <polygon
   points="36.036,13.6076 36.036,14.5148 35.1351,14.5148 35.1351,13.6076 "
   id="_364976392"
   style="fill:#e31e24" />
    <polygon
   points="36.036,14.5148 36.036,15.4219 35.1351,15.4219 35.1351,14.5148 "
   id="_364976296"
   style="fill:#e31e24" />
    <polygon
   points="36.036,15.4219 36.036,16.3294 35.1351,16.3294 35.1351,15.4219 "
   id="_364976200"
   style="fill:#e31e24" />
    <polygon
   points="36.036,16.3294 36.036,17.2365 35.1351,17.2365 35.1351,16.3294 "
   id="_364976104"
   style="fill:#e31e24" />
    <polygon
   points="36.036,17.2365 36.036,18.1437 35.1351,18.1437 35.1351,17.2365 "
   id="_364976008"
   style="fill:#e31e24" />
    <polygon
   points="36.9369,14.5148 36.9369,15.4219 36.036,15.4219 36.036,14.5148 "
   id="_364975912"
   style="fill:#e31e24" />
    <polygon
   points="36.9369,15.4219 36.9369,16.3294 36.036,16.3294 36.036,15.4219 "
   id="_364975816"
   style="fill:#e31e24" />
    <polygon
   points="36.9369,16.3294 36.9369,17.2365 36.036,17.2365 36.036,16.3294 "
   id="_364975720"
   style="fill:#e31e24" />
    <polygon
   points="36.9369,17.2365 36.9369,18.1437 36.036,18.1437 36.036,17.2365 "
   id="_364975624"
   style="fill:#e31e24" />
    <polygon
   points="37.8377,15.4219 37.8377,16.3294 36.9369,16.3294 36.9369,15.4219 "
   id="_364975528"
   style="fill:#e31e24" />
    <polygon
   points="37.8377,16.3294 37.8377,17.2365 36.9369,17.2365 36.9369,16.3294 "
   id="_364975432"
   style="fill:#e31e24" />
    <polygon
   points="37.8377,17.2365 37.8377,18.1437 36.9369,18.1437 36.9369,17.2365 "
   id="_364975336"
   style="fill:#e31e24" />
    <polygon
   points="37.8377,14.5148 37.8377,13.6076 36.9369,13.6076 36.9369,14.5148 "
   id="_364975240"
   style="fill:#2b2a29" />
    <polygon
   points="37.8377,13.6076 37.8377,12.7005 36.9369,12.7005 36.9369,13.6076 "
   id="_364975144"
   style="fill:#2b2a29" />
    <polygon
   points="36.9369,13.6076 36.9369,12.7005 36.036,12.7005 36.036,13.6076 "
   id="_364975048"
   style="fill:#2b2a29" />
    <polygon
   points="38.7386,12.7005 38.7386,11.7933 37.8377,11.7933 37.8377,12.7005 "
   id="_364974952"
   style="fill:#2b2a29" />
    <polygon
   points="37.8377,22.6794 37.8377,21.7723 36.9369,21.7723 36.9369,22.6794 "
   id="_364974856"
   style="fill:#2b2a29" />
    <polygon
   points="36.9369,22.6794 36.9369,21.7723 36.036,21.7723 36.036,22.6794 "
   id="_364974760"
   style="fill:#2b2a29" />
    <polygon
   points="29.7299,14.5148 29.7299,13.6076 28.8287,13.6076 28.8287,14.5148 "
   id="_364974664"
   style="fill:#2b2a29" />
    <polygon
   points="29.7299,15.4219 29.7299,14.5148 28.8287,14.5148 28.8287,15.4219 "
   id="_364974568"
   style="fill:#2b2a29" />
    <polygon
   points="26.126,17.2365 26.126,18.1437 25.2252,18.1437 25.2252,17.2365 "
   id="_364974472"
   style="fill:#e31e24" />
    <polygon
   points="26.126,18.1437 26.126,19.0508 25.2252,19.0508 25.2252,18.1437 "
   id="_364974376"
   style="fill:#e31e24" />
    <polygon
   points="26.126,19.0508 26.126,19.958 25.2252,19.958 25.2252,19.0508 "
   id="_364974280"
   style="fill:#e31e24" />
    <polygon
   points="26.126,19.958 26.126,20.8651 25.2252,20.8651 25.2252,19.958 "
   id="_364974184"
   style="fill:#e31e24" />
    <polygon
   points="27.0269,16.3294 27.0269,17.2365 26.126,17.2365 26.126,16.3294 "
   id="_364974088"
   style="fill:#e31e24" />
    <polygon
   points="27.0269,17.2365 27.0269,18.1437 26.126,18.1437 26.126,17.2365 "
   id="_364973992"
   style="fill:#e31e24" />
    <polygon
   points="27.0269,18.1437 27.0269,19.0508 26.126,19.0508 26.126,18.1437 "
   id="_364973896"
   style="fill:#e31e24" />
    <polygon
   points="27.0269,19.0508 27.0269,19.958 26.126,19.958 26.126,19.0508 "
   id="_364973800"
   style="fill:#e31e24" />
    <polygon
   points="27.0269,19.958 27.0269,20.8651 26.126,20.8651 26.126,19.958 "
   id="_364973704"
   style="fill:#e31e24" />
    <polygon
   points="27.0269,20.8651 27.0269,21.7723 26.126,21.7723 26.126,20.8651 "
   id="_364973608"
   style="fill:#e31e24" />
    <polygon
   points="27.9278,17.2365 27.9278,18.1437 27.0269,18.1437 27.0269,17.2365 "
   id="_364973512"
   style="fill:#e31e24" />
    <polygon
   points="27.9278,18.1437 27.9278,19.0508 27.0269,19.0508 27.0269,18.1437 "
   id="_364973416"
   style="fill:#e31e24" />
    <polygon
   points="27.9278,19.0508 27.9278,19.958 27.0269,19.958 27.0269,19.0508 "
   id="_364973320"
   style="fill:#e31e24" />
    <polygon
   points="27.9278,19.958 27.9278,20.8651 27.0269,20.8651 27.0269,19.958 "
   id="_364973224"
   style="fill:#e31e24" />
    <polygon
   points="27.9278,16.3294 27.9278,15.4219 27.0269,15.4219 27.0269,16.3294 "
   id="_364973128"
   style="fill:#2b2a29" />
    <polygon
   points="26.126,16.3294 26.126,15.4219 25.2252,15.4219 25.2252,16.3294 "
   id="_364973032"
   style="fill:#2b2a29" />
    <polygon
   points="28.8287,19.0508 28.8287,18.1437 27.9278,18.1437 27.9278,19.0508 "
   id="_364972936"
   style="fill:#2b2a29" />
    <polygon
   points="28.8287,19.958 28.8287,19.0508 27.9278,19.0508 27.9278,19.958 "
   id="_364972840"
   style="fill:#2b2a29" />
    <polygon
   points="25.2252,19.0508 25.2252,18.1437 24.3243,18.1437 24.3243,19.0508 "
   id="_364972744"
   style="fill:#2b2a29" />
    <polygon
   points="25.2252,19.958 25.2252,19.0508 24.3243,19.0508 24.3243,19.958 "
   id="_364972648"
   style="fill:#2b2a29" />
    <polygon
   points="24.3243,24.4937 24.3243,23.5866 25.2252,23.5866 25.2252,24.4937 "
   id="_364972552"
   style="fill:#e31e24" />
    <polygon
   points="24.3243,25.4009 24.3243,24.4937 25.2252,24.4937 25.2252,25.4009 "
   id="_364972456"
   style="fill:#e31e24" />
    <polygon
   points="36.9369,21.7723 36.9369,20.8651 37.8377,20.8651 37.8377,21.7723 "
   id="_364972360"
   style="fill:#e31e24" />
    <polygon
   points="36.9369,20.8651 36.9369,19.958 37.8377,19.958 37.8377,20.8651 "
   id="_364972264"
   style="fill:#e31e24" />
    <polygon
   points="36.9369,19.958 36.9369,19.0508 37.8377,19.0508 37.8377,19.958 "
   id="_364972168"
   style="fill:#e31e24" />
    <polygon
   points="36.036,21.7723 36.036,20.8651 36.9369,20.8651 36.9369,21.7723 "
   id="_364972072"
   style="fill:#e31e24" />
    <polygon
   points="36.036,20.8651 36.036,19.958 36.9369,19.958 36.9369,20.8651 "
   id="_364971976"
   style="fill:#e31e24" />
    <polygon
   points="36.036,19.958 36.036,19.0508 36.9369,19.0508 36.9369,19.958 "
   id="_364971880"
   style="fill:#e31e24" />
    <polygon
   points="37.8377,20.8651 37.8377,19.958 38.7386,19.958 38.7386,20.8651 "
   id="_364971784"
   style="fill:#e31e24" />
    <polygon
   points="35.1351,21.7723 35.1351,20.8651 36.036,20.8651 36.036,21.7723 "
   id="_364971688"
   style="fill:#e31e24" />
    <polygon
   points="35.1351,20.8651 35.1351,19.958 36.036,19.958 36.036,20.8651 "
   id="_364971592"
   style="fill:#e31e24" />
    <polygon
   points="35.1351,19.958 35.1351,19.0508 36.036,19.0508 36.036,19.958 "
   id="_364971496"
   style="fill:#e31e24" />
    <polygon
   points="37.8377,21.7723 37.8377,20.8651 38.7386,20.8651 38.7386,21.7723 "
   id="_364971400"
   style="fill:#e31e24" />
    <polygon
   points="34.2342,20.8651 34.2342,19.958 35.1351,19.958 35.1351,20.8651 "
   id="_364971304"
   style="fill:#e31e24" />
    <polygon
   points="34.2342,19.958 34.2342,19.0508 35.1351,19.0508 35.1351,19.958 "
   id="_364971208"
   style="fill:#e31e24" />
    <polygon
   points="33.3334,19.958 33.3334,19.0508 34.2342,19.0508 34.2342,19.958 "
   id="_364971112"
   style="fill:#e31e24" />
    <polygon
   points="30.6307,13.6076 30.6307,14.5148 29.7299,14.5148 29.7299,13.6076 "
   id="_364971016"
   style="fill:#e31e24" />
    <polygon
   points="30.6307,14.5148 30.6307,15.4219 29.7299,15.4219 29.7299,14.5148 "
   id="_364970920"
   style="fill:#e31e24" />
    <polygon
   points="30.6307,15.4219 30.6307,16.3294 29.7299,16.3294 29.7299,15.4219 "
   id="_364970824"
   style="fill:#e31e24" />
    <polygon
   points="31.5316,13.6076 31.5316,14.5148 30.6307,14.5148 30.6307,13.6076 "
   id="_364970728"
   style="fill:#e31e24" />
    <polygon
   points="31.5316,14.5148 31.5316,15.4219 30.6307,15.4219 30.6307,14.5148 "
   id="_364970632"
   style="fill:#e31e24" />
    <polygon
   points="31.5316,15.4219 31.5316,16.3294 30.6307,16.3294 30.6307,15.4219 "
   id="_364970536"
   style="fill:#e31e24" />
    <polygon
   points="31.5316,16.3294 31.5316,17.2365 30.6307,17.2365 30.6307,16.3294 "
   id="_364970440"
   style="fill:#e31e24" />
    <polygon
   points="32.4325,13.6076 32.4325,14.5148 31.5316,14.5148 31.5316,13.6076 "
   id="_364970344"
   style="fill:#e31e24" />
    <polygon
   points="32.4325,14.5148 32.4325,15.4219 31.5316,15.4219 31.5316,14.5148 "
   id="_364970248"
   style="fill:#e31e24" />
    <polygon
   points="32.4325,15.4219 32.4325,16.3294 31.5316,16.3294 31.5316,15.4219 "
   id="_364970152"
   style="fill:#e31e24" />
    <polygon
   points="32.4325,16.3294 32.4325,17.2365 31.5316,17.2365 31.5316,16.3294 "
   id="_336409552"
   style="fill:#e31e24" />
    <polygon
   points="32.4325,17.2365 32.4325,18.1437 31.5316,18.1437 31.5316,17.2365 "
   id="_326719536"
   style="fill:#e31e24" />
    <polygon
   points="30.6307,12.7005 30.6307,13.6076 29.7299,13.6076 29.7299,12.7005 "
   id="_326719392"
   style="fill:#e31e24" />
    <polygon
   points="31.5316,12.7005 31.5316,13.6076 30.6307,13.6076 30.6307,12.7005 "
   id="_326703360"
   style="fill:#e31e24" />
    <polygon
   points="21.6217,16.3294 21.6217,15.4219 20.7208,15.4219 20.7208,16.3294 "
   id="_336412216"
   style="fill:#2b2a29" />
    <polygon
   points="21.6217,20.8651 21.6217,19.958 20.7208,19.958 20.7208,20.8651 "
   id="_365035488"
   style="fill:#2b2a29" />
    <polygon
   points="20.7208,21.7723 20.7208,20.8651 19.8199,20.8651 19.8199,21.7723 "
   id="_365035392"
   style="fill:#2b2a29" />
    <polygon
   points="19.8199,33.5656 19.8199,32.6584 20.7208,32.6584 20.7208,33.5656 "
   id="_365035296"
   style="fill:#e31e24" />
    <polygon
   points="19.8199,32.6584 19.8199,31.7513 20.7208,31.7513 20.7208,32.6584 "
   id="_365035200"
   style="fill:#e31e24" />
    <polygon
   points="19.8199,36.287 19.8199,35.3799 20.7208,35.3799 20.7208,36.287 "
   id="_365035104"
   style="fill:#e31e24" />
    <polygon
   points="20.7208,31.7513 20.7208,30.8441 21.6217,30.8441 21.6217,31.7513 "
   id="_365035008"
   style="fill:#e31e24" />
    <polygon
   points="21.6217,30.8441 21.6217,29.937 22.5225,29.937 22.5225,30.8441 "
   id="_365034912"
   style="fill:#e31e24" />
    <polygon
   points="22.5225,30.8441 22.5225,29.937 23.4234,29.937 23.4234,30.8441 "
   id="_365034816"
   style="fill:#e31e24" />
    <polygon
   points="23.4234,30.8441 23.4234,29.937 24.3243,29.937 24.3243,30.8441 "
   id="_365034720"
   style="fill:#e31e24" />
    <polygon
   points="24.3243,31.7513 24.3243,30.8441 25.2252,30.8441 25.2252,31.7513 "
   id="_365034624"
   style="fill:#e31e24" />
    <polygon
   points="25.2252,31.7513 25.2252,30.8441 26.126,30.8441 26.126,31.7513 "
   id="_365034528"
   style="fill:#e31e24" />
    <polygon
   points="26.126,31.7513 26.126,30.8441 27.0269,30.8441 27.0269,31.7513 "
   id="_365034432"
   style="fill:#e31e24" />
    <polygon
   points="23.4234,33.5656 23.4234,34.4727 22.5225,34.4727 22.5225,33.5656 "
   id="_365034336"
   style="fill:#e31e24" />
    <polygon
   points="22.5225,34.4727 22.5225,35.3799 21.6217,35.3799 21.6217,34.4727 "
   id="_365034240"
   style="fill:#e31e24" />
    <polygon
   points="23.4234,35.3799 23.4234,36.287 22.5225,36.287 22.5225,35.3799 "
   id="_365034144"
   style="fill:#e31e24" />
    <polygon
   points="24.3243,31.7513 24.3243,32.6584 23.4234,32.6584 23.4234,31.7513 "
   id="_365034048"
   style="fill:#e31e24" />
    <polygon
   points="24.3243,32.6584 24.3243,33.5656 23.4234,33.5656 23.4234,32.6584 "
   id="_365033952"
   style="fill:#e31e24" />
    <polygon
   points="24.3243,34.4727 24.3243,35.3799 23.4234,35.3799 23.4234,34.4727 "
   id="_365033856"
   style="fill:#2b2a29" />
    <polygon
   points="24.3243,35.3799 24.3243,36.287 23.4234,36.287 23.4234,35.3799 "
   id="_365033760"
   style="fill:#e31e24" />
    <polygon
   points="24.3243,36.287 24.3243,37.1945 23.4234,37.1945 23.4234,36.287 "
   id="_365033664"
   style="fill:#e31e24" />
    <polygon
   points="25.2252,33.5656 25.2252,34.4727 24.3243,34.4727 24.3243,33.5656 "
   id="_365033568"
   style="fill:#e31e24" />
    <polygon
   points="26.126,34.4727 26.126,35.3799 25.2252,35.3799 25.2252,34.4727 "
   id="_365033472"
   style="fill:#e31e24" />
    <polygon
   points="25.2252,35.3799 25.2252,36.287 24.3243,36.287 24.3243,35.3799 "
   id="_365033376"
   style="fill:#e31e24" />
    <polygon
   points="20.7208,37.1945 20.7208,36.287 21.6217,36.287 21.6217,37.1945 "
   id="_365033280"
   style="fill:#e31e24" />
    <polygon
   points="21.6217,38.1016 21.6217,37.1945 22.5225,37.1945 22.5225,38.1016 "
   id="_365033184"
   style="fill:#e31e24" />
    <polygon
   points="19.8199,38.1016 19.8199,37.1945 20.7208,37.1945 20.7208,38.1016 "
   id="_365033088"
   style="fill:#e31e24" />
    <g
   id="g478">
     <polygon
   points="27.0269,30.8441 27.0269,31.7513 26.126,31.7513 26.126,30.8441 "
   id="_365032992"
   style="fill:#e31e24" />
     <polygon
   points="27.9278,29.937 27.9278,30.8441 27.0269,30.8441 27.0269,29.937 "
   id="_365032896"
   style="fill:#e31e24" />
     <polygon
   points="27.9278,30.8441 27.9278,31.7513 27.0269,31.7513 27.0269,30.8441 "
   id="_365032800"
   style="fill:#e31e24" />
     <polygon
   points="27.9278,31.7513 27.9278,32.6584 27.0269,32.6584 27.0269,31.7513 "
   id="_365032704"
   style="fill:#e31e24" />
     <polygon
   points="28.8287,29.0298 28.8287,29.937 27.9278,29.937 27.9278,29.0298 "
   id="_365032608"
   style="fill:#e31e24" />
     <polygon
   points="28.8287,29.937 28.8287,30.8441 27.9278,30.8441 27.9278,29.937 "
   id="_365032512"
   style="fill:#e31e24" />
     <polygon
   points="28.8287,30.8441 28.8287,31.7513 27.9278,31.7513 27.9278,30.8441 "
   id="_365032416"
   style="fill:#e31e24" />
     <polygon
   points="28.8287,31.7513 28.8287,32.6584 27.9278,32.6584 27.9278,31.7513 "
   id="_365032320"
   style="fill:#e31e24" />
     <polygon
   points="28.8287,32.6584 28.8287,33.5656 27.9278,33.5656 27.9278,32.6584 "
   id="_365032224"
   style="fill:#e31e24" />
     <polygon
   points="29.7299,28.1227 29.7299,29.0298 28.8287,29.0298 28.8287,28.1227 "
   id="_365032128"
   style="fill:#e31e24" />
     <polygon
   points="29.7299,29.0298 29.7299,29.937 28.8287,29.937 28.8287,29.0298 "
   id="_365032032"
   style="fill:#e31e24" />
     <polygon
   points="29.7299,29.937 29.7299,30.8441 28.8287,30.8441 28.8287,29.937 "
   id="_365031936"
   style="fill:#e31e24" />
     <polygon
   points="29.7299,30.8441 29.7299,31.7513 28.8287,31.7513 28.8287,30.8441 "
   id="_365031840"
   style="fill:#e31e24" />
     <polygon
   points="29.7299,31.7513 29.7299,32.6584 28.8287,32.6584 28.8287,31.7513 "
   id="_365031744"
   style="fill:#e31e24" />
     <polygon
   points="29.7299,32.6584 29.7299,33.5656 28.8287,33.5656 28.8287,32.6584 "
   id="_365031648"
   style="fill:#e31e24" />
     <polygon
   points="29.7299,33.5656 29.7299,34.4727 28.8287,34.4727 28.8287,33.5656 "
   id="_365031552"
   style="fill:#e31e24" />
     <polygon
   points="31.5316,28.1227 31.5316,29.0298 30.6307,29.0298 30.6307,28.1227 "
   id="_365031456"
   style="fill:#e31e24" />
     <polygon
   points="31.5316,29.0298 31.5316,29.937 30.6307,29.937 30.6307,29.0298 "
   id="_365031360"
   style="fill:#e31e24" />
     <polygon
   points="31.5316,29.937 31.5316,30.8441 30.6307,30.8441 30.6307,29.937 "
   id="_365031264"
   style="fill:#e31e24" />
     <polygon
   points="31.5316,30.8441 31.5316,31.7513 30.6307,31.7513 30.6307,30.8441 "
   id="_365031168"
   style="fill:#e31e24" />
     <polygon
   points="31.5316,31.7513 31.5316,32.6584 30.6307,32.6584 30.6307,31.7513 "
   id="_365031072"
   style="fill:#e31e24" />
     <polygon
   points="31.5316,32.6584 31.5316,33.5656 30.6307,33.5656 30.6307,32.6584 "
   id="_365030976"
   style="fill:#e31e24" />
     <polygon
   points="31.5316,33.5656 31.5316,34.4727 30.6307,34.4727 30.6307,33.5656 "
   id="_365030880"
   style="fill:#e31e24" />
     <polygon
   points="32.4325,29.0298 32.4325,29.937 31.5316,29.937 31.5316,29.0298 "
   id="_365030784"
   style="fill:#e31e24" />
     <polygon
   points="32.4325,29.937 32.4325,30.8441 31.5316,30.8441 31.5316,29.937 "
   id="_365030688"
   style="fill:#e31e24" />
     <polygon
   points="32.4325,30.8441 32.4325,31.7513 31.5316,31.7513 31.5316,30.8441 "
   id="_365030592"
   style="fill:#e31e24" />
     <polygon
   points="32.4325,31.7513 32.4325,32.6584 31.5316,32.6584 31.5316,31.7513 "
   id="_365030496"
   style="fill:#e31e24" />
     <polygon
   points="32.4325,32.6584 32.4325,33.5656 31.5316,33.5656 31.5316,32.6584 "
   id="_365030400"
   style="fill:#e31e24" />
     <polygon
   points="33.3334,29.937 33.3334,30.8441 32.4325,30.8441 32.4325,29.937 "
   id="_365030304"
   style="fill:#e31e24" />
     <polygon
   points="33.3334,30.8441 33.3334,31.7513 32.4325,31.7513 32.4325,30.8441 "
   id="_365030208"
   style="fill:#e31e24" />
     <polygon
   points="33.3334,31.7513 33.3334,32.6584 32.4325,32.6584 32.4325,31.7513 "
   id="_365030112"
   style="fill:#e31e24" />
     <polygon
   points="34.2342,30.8441 34.2342,31.7513 33.3334,31.7513 33.3334,30.8441 "
   id="_365030016"
   style="fill:#e31e24" />
     <polygon
   points="30.6307,28.1227 30.6307,29.0298 29.7299,29.0298 29.7299,28.1227 "
   id="_365029920"
   style="fill:#e31e24" />
     <polygon
   points="30.6307,29.0298 30.6307,29.937 29.7299,29.937 29.7299,29.0298 "
   id="_365029824"
   style="fill:#e31e24" />
     <polygon
   points="30.6307,29.937 30.6307,30.8441 29.7299,30.8441 29.7299,29.937 "
   id="_365029728"
   style="fill:#e31e24" />
     <polygon
   points="30.6307,30.8441 30.6307,31.7513 29.7299,31.7513 29.7299,30.8441 "
   id="_365029632"
   style="fill:#e31e24" />
     <polygon
   points="30.6307,31.7513 30.6307,32.6584 29.7299,32.6584 29.7299,31.7513 "
   id="_365029536"
   style="fill:#e31e24" />
     <polygon
   points="30.6307,32.6584 30.6307,33.5656 29.7299,33.5656 29.7299,32.6584 "
   id="_365029416"
   style="fill:#e31e24" />
     <polygon
   points="30.6307,33.5656 30.6307,34.4727 29.7299,34.4727 29.7299,33.5656 "
   id="_365029344"
   style="fill:#e31e24" />
    </g>
    <polygon
   points="34.2342,33.5656 34.2342,34.4727 33.3334,34.4727 33.3334,33.5656 "
   id="_365029200"
   style="fill:#2b2a29" />
    <polygon
   points="35.1351,31.7513 35.1351,32.6584 34.2342,32.6584 34.2342,31.7513 "
   id="_365029104"
   style="fill:#2b2a29" />
    <polygon
   points="35.1351,32.6584 35.1351,33.5656 34.2342,33.5656 34.2342,32.6584 "
   id="_365027592"
   style="fill:#2b2a29" />
    <polygon
   points="34.2342,29.0298 34.2342,28.1227 33.3334,28.1227 33.3334,29.0298 "
   id="_365026176"
   style="fill:#2b2a29" />
    <polygon
   points="35.1351,30.8441 35.1351,29.937 34.2342,29.937 34.2342,30.8441 "
   id="_365027736"
   style="fill:#2b2a29" />
    <polygon
   points="35.1351,29.937 35.1351,29.0298 34.2342,29.0298 34.2342,29.937 "
   id="_365027712"
   style="fill:#2b2a29" />
   </g>
  </g>
 </g>
</svg>