<?xml version="1.0" encoding="UTF-8"?>
<!DOCTYPE svg PUBLIC "-//W3C//DTD SVG 1.1//EN" "http://www.w3.org/Graphics/SVG/1.1/DTD/svg11.dtd">
<!-- Creator: CorelDRAW -->
<svg xmlns="http://www.w3.org/2000/svg" xml:space="preserve" width="160.076mm" height="120.076mm" style="shape-rendering:geometricPrecision; text-rendering:geometricPrecision; image-rendering:optimizeQuality; fill-rule:evenodd; clip-rule:evenodd"
viewBox="0 0 160.076 120.076"
 xmlns:xlink="http://www.w3.org/1999/xlink">
 <defs>
  <style type="text/css">
   <![CDATA[
    .str0 {stroke:white;stroke-width:0.0762}
    .fil0 {fill:#1F1A17}
    .fil1 {fill:#DA251D}
   ]]>
  </style>
 </defs>
 <g id="Layer_x0020_1">
  <metadata id="CorelCorpID_0Corel-Layer"/>
  <g id="_11056560">
   <g>
    <polygon id="_11057208" class="fil0 str0" points="130.04,0.0381 140.029,0.0381 140.029,10.0355 130.04,10.0355 "/>
    <polygon id="_11058960" class="fil0 str0" points="110.046,0.0381 120.035,0.0381 120.035,10.0355 110.046,10.0355 "/>
    <polygon id="_11058744" class="fil0 str0" points="90.0511,0.0381 100.04,0.0381 100.04,10.0355 90.0511,10.0355 "/>
    <polygon id="_11058528" class="fil0 str0" points="70.0568,0.0381 80.0458,0.0381 80.0458,10.0355 70.0568,10.0355 "/>
    <polygon id="_11058312" class="fil0 str0" points="50.0624,0.0381 60.0514,0.0381 60.0514,10.0355 50.0624,10.0355 "/>
    <polygon id="_11058096" class="fil0 str0" points="30.0681,0.0381 40.0571,0.0381 40.0571,10.0355 30.0681,10.0355 "/>
    <polygon id="_11057880" class="fil0 str0" points="10.0737,0.0381 20.0627,0.0381 20.0627,10.0355 10.0737,10.0355 "/>
    <polygon id="_11057664" class="fil0 str0" points="150.026,0.0381 160.015,0.0381 160.015,10.0355 150.026,10.0355 "/>
   </g>
   <g>
    <polygon id="_11057448" class="fil0 str0" points="100.01,110.009 110.03,110.009 110.03,120.038 100.01,120.038 "/>
    <polygon id="_11057160" class="fil0 str0" points="80.0155,110.009 90.0358,110.009 90.0358,120.038 80.0155,120.038 "/>
    <polygon id="_11056920" class="fil0 str0" points="60.0212,110.009 70.0415,110.009 70.0415,120.038 60.0212,120.038 "/>
    <polygon id="_11056656" class="fil0 str0" points="40.0268,110.009 50.0471,110.009 50.0471,120.038 40.0268,120.038 "/>
    <polygon id="_11056968" class="fil0 str0" points="20.0324,110.009 30.0528,110.009 30.0528,120.038 20.0324,120.038 "/>
    <polygon id="_11056752" class="fil0 str0" points="0.0381,110.009 10.0584,110.009 10.0584,120.038 0.0381,120.038 "/>
    <polygon id="_11057040" class="fil0 str0" points="120.027,110.009 130.016,110.009 130.016,120.038 120.027,120.038 "/>
    <polygon id="_11057256" class="fil0 str0" points="140.021,110.009 140.021,120.038 150.041,120.038 150.041,110.009 "/>
    <polygon id="_11057472" class="fil0 str0" points="130.016,100.012 140.037,100.012 140.037,110.009 130.016,110.009 "/>
    <polygon id="_11057688" class="fil0 str0" points="110.022,100.012 120.043,100.012 120.043,110.009 110.022,110.009 "/>
    <polygon id="_11057904" class="fil0 str0" points="90.0275,100.012 100.048,100.012 100.048,110.009 90.0275,110.009 "/>
    <polygon id="_11058120" class="fil0 str0" points="70.0332,100.012 80.054,100.012 80.054,110.009 70.0332,110.009 "/>
    <polygon id="_11058336" class="fil0 str0" points="50.0388,100.012 60.0596,100.012 60.0596,110.009 50.0388,110.009 "/>
    <polygon id="_11058552" class="fil0 str0" points="30.0445,100.012 40.0653,100.012 40.0653,110.009 30.0445,110.009 "/>
    <polygon id="_11058768" class="fil0 str0" points="10.0501,100.012 20.0709,100.012 20.0709,110.009 10.0501,110.009 "/>
    <polygon id="_11058984" class="fil0 str0" points="150.026,100.012 150.026,110.009 160.015,110.009 160.015,100.012 "/>
   </g>
   <g>
    <polygon id="_11059200" class="fil0 str0" points="10.0353,69.9879 20.0556,69.9879 20.0556,79.9853 10.0353,79.9853 "/>
    <polygon id="_11059488" class="fil0 str0" points="0.0381,69.9879 10.0584,69.9879 10.0584,79.9853 0.0381,79.9853 "/>
    <polygon id="_89703072" class="fil0 str0" points="150.026,69.9879 160.015,69.9879 160.015,79.9853 150.026,79.9853 "/>
    <polygon id="_89702808" class="fil0 str0" points="10.0353,30.0616 20.0556,30.0616 20.0556,40.0591 10.0353,40.0591 "/>
    <polygon id="_89701680" class="fil0 str0" points="0.0381,30.0616 10.0584,30.0616 10.0584,40.0591 0.0381,40.0591 "/>
    <polygon id="_89702952" class="fil0 str0" points="150.026,30.0616 150.026,40.0591 160.015,40.0591 160.015,30.0616 "/>
    <polygon id="_89703024" class="fil0 str0" points="30.0296,50.0883 40.0499,50.0883 40.0499,60.0857 30.0296,60.0857 "/>
    <polygon id="_89703120" class="fil0 str0" points="20.0324,50.0883 30.0528,50.0883 30.0528,60.0857 20.0324,60.0857 "/>
    <polygon id="_89703240" class="fil0 str0" points="0.0381,50.0883 10.0584,50.0883 10.0584,60.0857 0.0381,60.0857 "/>
    <polygon id="_89703288" class="fil0 str0" points="130.016,50.0883 130.016,60.0857 140.037,60.0857 140.037,50.0883 "/>
    <polygon id="_89703360" class="fil0 str0" points="140.029,50.0883 150.018,50.0883 150.018,60.0857 140.029,60.0857 "/>
    <polygon id="_89703432" class="fil0 str0" points="0.0381,79.9853 10.0584,79.9853 10.0584,89.9827 0.0381,89.9827 "/>
    <polygon id="_89703504" class="fil0 str0" points="20.0556,40.0591 20.0556,50.0883 30.0445,50.0883 30.0445,40.0591 "/>
    <polygon id="_89703576" class="fil0 str0" points="10.0584,40.0591 10.0584,50.0883 20.0473,50.0883 20.0473,40.0591 "/>
    <polygon id="_89703648" class="fil0 str0" points="140.029,40.0591 150.018,40.0591 150.018,50.0883 140.029,50.0883 "/>
    <polygon id="_89703720" class="fil0 str0" points="20.0324,60.0857 30.0528,60.0857 30.0528,69.9879 20.0324,69.9879 "/>
    <polygon id="_89703792" class="fil0 str0" points="10.0353,60.0857 20.0556,60.0857 20.0556,69.9879 10.0353,69.9879 "/>
    <polygon id="_89703864" class="fil0 str0" points="140.037,60.0857 150.026,60.0857 150.026,69.9879 140.037,69.9879 "/>
    <polygon id="_89703936" class="fil0 str0" points="150.018,60.0857 150.018,69.9879 160.038,69.9879 160.038,60.0857 "/>
    <polygon id="_89704008" class="fil0 str0" points="150.018,40.0857 150.018,49.9879 160.038,49.9879 160.038,40.0857 "/>
    <polygon id="_89704080" class="fil0 str0" points="0.0381,20.0643 10.0584,20.0643 10.0584,30.0616 0.0381,30.0616 "/>
   </g>
   <g>
    <polygon id="_89704152" class="fil1 str0" points="110.007,69.9879 120.027,69.9879 120.027,79.9853 110.007,79.9853 "/>
    <polygon id="_89704272" class="fil1 str0" points="90.0127,69.9879 100.033,69.9879 100.033,79.9853 90.0127,79.9853 "/>
    <polygon id="_89704344" class="fil1 str0" points="80.0155,69.9879 90.0358,69.9879 90.0358,79.9853 80.0155,79.9853 "/>
    <polygon id="_89704416" class="fil1 str0" points="70.0183,69.9879 80.0386,69.9879 80.0386,79.9853 70.0183,79.9853 "/>
    <polygon id="_89704488" class="fil1 str0" points="50.024,69.9879 60.0443,69.9879 60.0443,79.9853 50.024,79.9853 "/>
    <polygon id="_89704560" class="fil1 str0" points="40.0268,69.9879 50.0471,69.9879 50.0471,79.9853 40.0268,79.9853 "/>
    <polygon id="_89704632" class="fil1 str0" points="120.027,69.9879 120.027,79.9853 130.016,79.9853 130.016,69.9879 "/>
    <polygon id="_89704704" class="fil1 str0" points="110.007,30.0616 120.027,30.0616 120.027,40.0591 110.007,40.0591 "/>
    <polygon id="_89704776" class="fil1 str0" points="90.0127,30.0616 100.033,30.0616 100.033,40.0591 90.0127,40.0591 "/>
    <polygon id="_89704848" class="fil1 str0" points="80.0155,30.0616 90.0358,30.0616 90.0358,40.0591 80.0155,40.0591 "/>
    <polygon id="_89704920" class="fil1 str0" points="70.0183,30.0616 80.0386,30.0616 80.0386,40.0591 70.0183,40.0591 "/>
    <polygon id="_89704992" class="fil1 str0" points="50.024,30.0616 60.0443,30.0616 60.0443,40.0591 50.024,40.0591 "/>
    <polygon id="_89705064" class="fil1 str0" points="40.0268,30.0616 50.0471,30.0616 50.0471,40.0591 40.0268,40.0591 "/>
    <polygon id="_89705136" class="fil1 str0" points="120.027,30.0616 120.027,40.0591 130.016,40.0591 130.016,30.0616 "/>
    <polygon id="_89705208" class="fil1 str0" points="100.01,50.0883 110.03,50.0883 110.03,60.0857 100.01,60.0857 "/>
    <polygon id="_89705280" class="fil1 str0" points="60.0212,50.0883 70.0415,50.0883 70.0415,60.0857 60.0212,60.0857 "/>
    <polygon id="_89705352" class="fil1 str0" points="100.01,79.9853 110.03,79.9853 110.03,89.9827 100.01,89.9827 "/>
    <polygon id="_89705424" class="fil1 str0" points="80.0155,79.9853 90.0358,79.9853 90.0358,89.9827 80.0155,89.9827 "/>
    <polygon id="_89705496" class="fil1 str0" points="60.0212,79.9853 70.0415,79.9853 70.0415,89.9827 60.0212,89.9827 "/>
    <polygon id="_89705568" class="fil1 str0" points="40.0268,79.9853 50.0471,79.9853 50.0471,89.9827 40.0268,89.9827 "/>
    <polygon id="_89705640" class="fil1 str0" points="30.0296,79.9853 40.0499,79.9853 40.0499,89.9827 30.0296,89.9827 "/>
    <polygon id="_83802120" class="fil1 str0" points="120.027,79.9853 120.027,89.9827 130.016,89.9827 130.016,79.9853 "/>
    <polygon id="_83801736" class="fil1 str0" points="130.016,79.9853 130.016,89.9827 140.037,89.9827 140.037,79.9853 "/>
    <polygon id="_83802096" class="fil1 str0" points="110.03,40.0591 110.03,50.0883 120.019,50.0883 120.019,40.0591 "/>
    <polygon id="_83803200" class="fil1 str0" points="100.033,40.0591 100.033,50.0883 110.022,50.0883 110.022,40.0591 "/>
    <polygon id="_83802480" class="fil1 str0" points="90.0358,40.0591 90.0358,50.0883 100.025,50.0883 100.025,40.0591 "/>
    <polygon id="_83802048" class="fil1 str0" points="70.0415,40.0591 70.0415,50.0883 80.0304,50.0883 80.0304,40.0591 "/>
    <polygon id="_83802312" class="fil1 str0" points="60.0443,40.0591 60.0443,50.0883 70.0332,50.0883 70.0332,40.0591 "/>
    <polygon id="_83802024" class="fil1 str0" points="50.0471,40.0591 50.0471,50.0883 60.036,50.0883 60.036,40.0591 "/>
    <polygon id="_83801880" class="fil1 str0" points="110.007,60.0857 120.027,60.0857 120.027,69.9879 110.007,69.9879 "/>
    <polygon id="_83801472" class="fil1 str0" points="100.01,60.0857 110.03,60.0857 110.03,69.9879 100.01,69.9879 "/>
    <polygon id="_83802000" class="fil1 str0" points="90.0127,60.0857 100.033,60.0857 100.033,69.9879 90.0127,69.9879 "/>
    <polygon id="_83801832" class="fil1 str0" points="70.0183,60.0857 80.0386,60.0857 80.0386,69.9879 70.0183,69.9879 "/>
    <polygon id="_83802432" class="fil1 str0" points="60.0212,60.0857 70.0415,60.0857 70.0415,69.9879 60.0212,69.9879 "/>
    <polygon id="_83803224" class="fil1 str0" points="50.024,60.0857 60.0443,60.0857 60.0443,69.9879 50.024,69.9879 "/>
    <polygon id="_83802672" class="fil1 str0" points="100.01,20.0643 110.03,20.0643 110.03,30.0616 100.01,30.0616 "/>
    <polygon id="_83801496" class="fil1 str0" points="80.0155,20.0643 90.0358,20.0643 90.0358,30.0616 80.0155,30.0616 "/>
    <polygon id="_83801904" class="fil1 str0" points="60.0212,20.0643 70.0415,20.0643 70.0415,30.0616 60.0212,30.0616 "/>
    <polygon id="_83802816" class="fil1 str0" points="40.0268,20.0643 50.0471,20.0643 50.0471,30.0616 40.0268,30.0616 "/>
    <polygon id="_83803104" class="fil1 str0" points="30.0296,20.0643 40.0499,20.0643 40.0499,30.0616 30.0296,30.0616 "/>
    <polygon id="_83803248" class="fil1 str0" points="120.027,20.0643 130.016,20.0643 130.016,30.0616 120.027,30.0616 "/>
    <polygon id="_83802408" class="fil1 str0" points="130.016,20.0643 130.016,30.0616 140.037,30.0616 140.037,20.0643 "/>
   </g>
  </g>
 </g>
</svg>
